<?xml version="1.0" standalone="no"?>
<!DOCTYPE svg PUBLIC "-//W3C//DTD SVG 20010904//EN"
 "http://www.w3.org/TR/2001/REC-SVG-20010904/DTD/svg10.dtd">
<svg version="1.0" xmlns="http://www.w3.org/2000/svg"
 width="179.000000pt" height="180.000000pt" viewBox="0 0 179.000000 180.000000"
 preserveAspectRatio="xMidYMid meet">

<g transform="translate(0.000000,180.000000) scale(0.100000,-0.100000)"
fill="#3a4e6e" stroke="none">
<path d="M897 1551 c-3 -15 -3 -37 0 -49 4 -16 -9 -30 -65 -71 -39 -29 -72
-55 -74 -59 -2 -4 -39 -25 -83 -46 -336 -164 -409 -602 -145 -866 214 -215
552 -210 765 10 162 168 198 404 95 614 -55 112 -163 212 -273 254 -23 9 -59
31 -79 48 -20 18 -55 45 -78 60 -32 21 -40 33 -39 53 6 74 -12 113 -24 52z
m75 -138 c8 -10 -6 -13 -67 -13 -43 0 -76 3 -72 6 3 4 21 17 39 29 31 22 34
22 61 6 16 -9 33 -22 39 -28z m72 -63 c26 -31 46 -87 46 -127 l0 -23 -180 0
-180 0 0 29 c0 36 18 89 42 124 19 27 20 27 133 27 l113 0 26 -30z m-324 -54
c-13 -35 -13 -107 1 -143 7 -19 7 -29 0 -31 -6 -2 -11 -12 -11 -23 0 -14 -7
-19 -30 -19 -23 0 -30 4 -30 20 0 11 6 29 12 40 31 50 -49 104 -93 64 -20 -18
-26 -69 -9 -79 6 -3 10 -15 10 -25 0 -15 -9 -19 -47 -22 l-48 -3 -3 -228 c-2
-209 -4 -228 -19 -225 -45 8 -79 220 -53 329 23 99 68 179 144 255 60 60 171
133 183 120 2 -2 -1 -15 -7 -30z m555 -90 c139 -139 188 -345 126 -527 -10
-32 -25 -55 -34 -57 -15 -3 -17 20 -19 225 l-3 228 -47 3 c-43 3 -48 6 -48 27
0 13 5 27 10 30 31 19 -11 85 -53 85 -32 0 -61 -33 -54 -62 21 -83 22 -78 -12
-78 -24 0 -31 4 -31 19 0 11 -4 21 -10 23 -6 2 -6 17 1 43 10 37 8 90 -7 143
-7 23 -6 23 57 -8 37 -19 89 -58 124 -94z m-635 -21 c10 -12 10 -21 1 -41 -6
-14 -11 -38 -11 -54 l0 -30 280 0 280 0 0 30 c0 17 -6 39 -12 50 -25 39 32 81
62 45 10 -12 10 -21 1 -41 -6 -14 -11 -38 -11 -54 0 -29 1 -30 50 -30 l50 0 0
-220 0 -220 -420 0 -420 0 0 219 0 220 48 3 c44 3 47 5 50 32 2 16 -1 33 -7
39 -24 24 -5 67 30 67 9 0 22 -7 29 -15z m440 -16 c0 -6 -5 -19 -10 -30 -10
-17 -23 -19 -164 -19 l-154 0 -11 30 -10 30 175 0 c116 0 174 -4 174 -11z m10
-79 c0 -6 -67 -10 -180 -10 -113 0 -180 4 -180 10 0 6 67 10 180 10 113 0 180
-4 180 -10z m238 -552 c-50 -71 -148 -148 -228 -179 -196 -75 -409 -31 -556
115 -34 34 -69 76 -78 94 l-17 32 461 0 461 0 -43 -62z"/>
<path d="M863 940 c-46 -28 -53 -48 -53 -159 l0 -101 100 0 100 0 0 95 c0 111
-12 144 -64 169 -43 20 -44 20 -83 -4z m77 -15 c42 -22 50 -43 50 -139 l0 -86
-80 0 -80 0 0 94 0 95 33 25 c38 30 39 31 77 11z"/>
<path d="M542 928 c-7 -7 -12 -34 -12 -61 l0 -48 38 3 c36 3 37 4 40 44 4 58
-34 94 -66 62z m46 -51 c3 -32 0 -37 -17 -37 -17 0 -21 6 -21 33 0 61 33 63
38 4z"/>
<path d="M662 928 c-7 -7 -12 -34 -12 -60 l0 -48 40 0 40 0 0 44 c0 62 -36 96
-68 64z m46 -51 c3 -32 0 -37 -17 -37 -17 0 -21 6 -21 33 0 61 33 63 38 4z"/>
<path d="M1102 928 c-7 -7 -12 -34 -12 -61 l0 -48 38 3 c36 3 37 4 40 44 4 58
-34 94 -66 62z m46 -51 c3 -32 0 -37 -17 -37 -17 0 -21 6 -21 33 0 61 33 63
38 4z"/>
<path d="M1222 928 c-7 -7 -12 -34 -12 -60 l0 -48 40 0 40 0 0 44 c0 62 -36
96 -68 64z m46 -51 c3 -32 0 -37 -17 -37 -17 0 -21 6 -21 33 0 61 33 63 38 4z"/>
<path d="M542 788 c-7 -7 -12 -34 -12 -61 l0 -48 38 3 c36 3 37 4 40 44 4 58
-34 94 -66 62z m46 -51 c3 -32 0 -37 -17 -37 -17 0 -21 6 -21 33 0 61 33 63
38 4z"/>
<path d="M662 788 c-7 -7 -12 -34 -12 -60 l0 -48 40 0 40 0 0 44 c0 62 -36 96
-68 64z m46 -51 c3 -32 0 -37 -17 -37 -17 0 -21 6 -21 33 0 61 33 63 38 4z"/>
<path d="M1102 788 c-7 -7 -12 -34 -12 -60 l0 -48 40 0 40 0 0 44 c0 62 -36
96 -68 64z m46 -51 c3 -32 0 -37 -17 -37 -17 0 -21 6 -21 33 0 61 33 63 38 4z"/>
<path d="M1222 788 c-7 -7 -12 -34 -12 -60 l0 -48 40 0 40 0 0 44 c0 62 -36
96 -68 64z m46 -51 c3 -32 0 -37 -17 -37 -17 0 -21 6 -21 33 0 61 33 63 38 4z"/>
<path d="M590 530 c0 -6 113 -10 320 -10 207 0 320 4 320 10 0 6 -113 10 -320
10 -207 0 -320 -4 -320 -10z"/>
<path d="M630 450 c0 -6 98 -10 274 -10 173 0 277 4 281 10 4 7 -90 10 -274
10 -181 0 -281 -4 -281 -10z"/>
</g>
</svg>
