<?xml version="1.0" standalone="no"?>
<!DOCTYPE svg PUBLIC "-//W3C//DTD SVG 20010904//EN"
 "http://www.w3.org/TR/2001/REC-SVG-20010904/DTD/svg10.dtd">
<svg version="1.0" xmlns="http://www.w3.org/2000/svg"
 width="180.000000pt" height="180.000000pt" viewBox="0 0 180.000000 180.000000"
 preserveAspectRatio="xMidYMid meet">

<g transform="translate(0.000000,180.000000) scale(0.100000,-0.100000)"
fill="#3a4e6e" stroke="none">
<path d="M623 1480 c-12 -5 -33 -27 -47 -48 -14 -22 -39 -50 -56 -62 -24 -17
-30 -29 -28 -49 3 -23 8 -27 52 -31 l50 -5 -37 -28 c-52 -39 -126 -147 -155
-226 -33 -90 -40 -222 -17 -311 63 -244 275 -410 523 -410 148 0 275 53 382
160 177 177 208 451 75 661 l-34 54 50 5 c71 8 89 41 45 85 -14 14 -31 37 -38
52 -33 68 -117 78 -171 20 -27 -29 -30 -30 -60 -18 -107 43 -155 54 -257 55
-110 1 -152 15 -165 55 -6 18 -55 51 -77 50 -7 0 -23 -4 -35 -9z m90 -42 c9
-11 17 -26 17 -33 0 -7 11 -16 24 -19 29 -7 43 -41 26 -61 -19 -22 -270 -22
-270 0 0 9 8 19 17 22 21 8 62 54 63 70 0 6 12 21 27 33 32 25 69 20 96 -12z
m276 -79 c36 -5 86 -19 113 -31 41 -17 46 -23 38 -38 -16 -29 -12 -58 10 -80
16 -16 33 -20 85 -20 l65 0 34 -47 c43 -59 73 -135 88 -224 16 -92 -1 -200
-47 -296 -35 -76 -65 -97 -65 -47 0 17 -6 28 -19 31 -11 3 -21 13 -24 24 -3
10 -13 19 -22 19 -14 0 -16 15 -11 143 3 78 8 170 11 204 6 53 4 63 -12 73
-10 6 -87 49 -172 95 l-153 84 -170 -92 -169 -92 6 -65 c3 -36 8 -129 11 -207
5 -139 4 -143 -15 -143 -14 0 -21 -6 -21 -20 0 -13 -7 -20 -20 -20 -16 0 -20
-7 -20 -31 0 -84 -84 40 -110 162 -17 80 -8 209 20 282 29 78 94 170 153 221
47 39 53 41 130 46 80 5 82 6 97 37 20 43 72 51 189 32z m369 -25 c12 -14 22
-33 22 -42 0 -10 10 -22 23 -27 12 -6 22 -19 22 -30 0 -19 -8 -20 -124 -23
-131 -3 -151 3 -151 42 0 28 18 46 45 46 14 0 26 10 33 25 23 50 89 55 130 9z
m-302 -189 c77 -41 131 -75 122 -75 -9 0 -74 31 -144 70 l-128 69 -31 -18
c-81 -48 -226 -122 -235 -119 -11 3 248 147 266 148 7 0 74 -34 150 -75z m-45
-15 c51 -28 95 -53 98 -55 2 -3 -90 -5 -205 -5 l-209 0 100 55 c55 30 105 55
112 55 7 0 54 -23 104 -50z m-384 -100 c4 -16 14 -20 44 -20 32 0 39 3 39 20
0 12 7 20 16 20 9 0 18 -9 21 -20 4 -16 14 -20 44 -20 32 0 39 3 39 20 0 12 7
20 16 20 9 0 18 -9 21 -20 4 -16 14 -20 44 -20 32 0 39 3 39 20 0 12 7 20 16
20 9 0 18 -9 21 -20 4 -16 14 -20 44 -20 32 0 39 3 39 20 0 12 7 20 16 20 9 0
18 -9 21 -20 4 -16 14 -20 44 -20 33 0 39 3 39 21 0 14 5 19 18 17 12 -2 18
-14 20 -41 l3 -37 -320 0 -321 0 0 40 c0 30 4 40 16 40 9 0 18 -9 21 -20z m58
10 c3 -5 -3 -10 -14 -10 -12 0 -21 5 -21 10 0 6 6 10 14 10 8 0 18 -4 21 -10z
m120 0 c3 -5 -3 -10 -14 -10 -12 0 -21 5 -21 10 0 6 6 10 14 10 8 0 18 -4 21
-10z m120 0 c3 -5 -3 -10 -14 -10 -12 0 -21 5 -21 10 0 6 6 10 14 10 8 0 18
-4 21 -10z m120 0 c3 -5 -3 -10 -14 -10 -12 0 -21 5 -21 10 0 6 6 10 14 10 8
0 18 -4 21 -10z m120 0 c3 -5 -3 -10 -14 -10 -12 0 -21 5 -21 10 0 6 6 10 14
10 8 0 18 -4 21 -10z m-441 -112 c3 -13 6 -80 6 -150 l0 -128 -30 0 -30 0 0
134 c0 74 3 141 6 150 9 24 41 19 48 -6z m140 6 c3 -9 6 -76 6 -150 l0 -134
-30 0 -30 0 0 134 c0 147 3 166 30 166 10 0 21 -7 24 -16z m140 0 c3 -9 6 -76
6 -150 l0 -134 -30 0 -30 0 0 134 c0 147 3 166 30 166 10 0 21 -7 24 -16z
m140 0 c3 -9 6 -76 6 -150 l0 -134 -30 0 -30 0 0 134 c0 147 3 166 30 166 10
0 21 -7 24 -16z m-496 -30 c2 -11 -6 -28 -18 -39 -20 -18 -20 -18 -20 24 0 35
3 42 18 39 9 -2 18 -12 20 -24z m140 0 c2 -11 -6 -28 -18 -39 -20 -18 -20 -18
-20 24 0 35 3 42 18 39 9 -2 18 -12 20 -24z m140 0 c2 -11 -6 -28 -18 -39 -20
-18 -20 -18 -20 24 0 35 3 42 18 39 9 -2 18 -12 20 -24z m140 0 c2 -11 -6 -28
-18 -39 -20 -18 -20 -18 -20 24 0 35 3 42 18 39 9 -2 18 -12 20 -24z m140 0
c2 -11 -6 -28 -18 -39 -20 -18 -20 -18 -20 24 0 35 3 42 18 39 9 -2 18 -12 20
-24z m-577 -158 l-21 -20 0 43 c0 28 6 52 18 64 16 19 17 18 20 -23 3 -33 -2
-48 -17 -64z m140 0 l-21 -20 0 43 c0 28 6 52 18 64 16 19 17 18 20 -23 3 -33
-2 -48 -17 -64z m140 0 l-21 -20 0 43 c0 28 6 52 18 64 16 19 17 18 20 -23 3
-33 -2 -48 -17 -64z m140 0 l-21 -20 0 43 c0 28 6 52 18 64 16 19 17 18 20
-23 3 -33 -2 -48 -17 -64z m140 0 l-21 -20 0 43 c0 28 6 52 18 64 16 19 17 18
20 -23 3 -33 -2 -48 -17 -64z m-541 -56 c0 -33 -3 -40 -20 -40 -25 0 -27 36
-3 62 22 25 23 24 23 -22z m140 0 c0 -33 -3 -40 -20 -40 -25 0 -27 36 -3 62
22 25 23 24 23 -22z m140 0 c0 -33 -3 -40 -20 -40 -25 0 -27 36 -3 62 22 25
23 24 23 -22z m140 0 c0 -33 -3 -40 -20 -40 -25 0 -27 36 -3 62 22 25 23 24
23 -22z m140 0 c0 -33 -3 -40 -20 -40 -25 0 -27 36 -3 62 22 25 23 24 23 -22z
m37 -79 c3 -11 13 -21 24 -24 10 -3 19 -12 19 -21 0 -14 -39 -16 -380 -16
-373 0 -380 0 -380 20 0 13 7 20 20 20 13 0 20 7 20 20 0 20 7 20 336 20 322
0 336 -1 341 -19z m63 -90 c0 -17 -110 -108 -164 -135 -152 -77 -336 -75 -486
5 -60 32 -150 108 -150 127 0 9 103 12 400 12 237 0 400 -4 400 -9z"/>
</g>
</svg>
