<?xml version="1.0" standalone="no"?>
<!DOCTYPE svg PUBLIC "-//W3C//DTD SVG 20010904//EN"
 "http://www.w3.org/TR/2001/REC-SVG-20010904/DTD/svg10.dtd">
<svg version="1.0" xmlns="http://www.w3.org/2000/svg"
 width="180.000000pt" height="180.000000pt" viewBox="0 0 180.000000 180.000000"
 preserveAspectRatio="xMidYMid meet">

<g transform="translate(0.000000,180.000000) scale(0.100000,-0.100000)"
fill="#3a4e6e" stroke="none">
<path d="M756 1525 c-16 -16 -12 -45 6 -45 10 0 4 -81 -8 -136 -4 -17 -51 -44
-77 -44 -12 0 -7 23 9 41 35 38 -13 80 -50 44 -15 -16 -12 -45 5 -45 5 0 9
-13 9 -28 0 -23 -9 -35 -49 -61 -167 -108 -263 -325 -232 -526 16 -103 78
-223 155 -299 279 -278 756 -171 887 199 27 76 36 222 19 296 -29 127 -114
255 -214 324 -63 43 -76 68 -51 95 35 39 -12 82 -49 45 -15 -16 -12 -45 5 -45
5 0 9 -9 9 -20 0 -24 -1 -24 -43 -6 -30 12 -33 18 -44 82 -10 59 -10 71 3 86
35 37 -14 79 -50 43 -16 -16 -12 -45 6 -45 10 0 3 -95 -8 -124 -3 -7 -37 -12
-93 -12 l-88 -1 -11 61 c-10 51 -9 62 4 77 35 38 -13 80 -50 44z m60 -502 c6
-196 9 -213 25 -213 33 0 49 39 49 120 0 93 16 127 23 49 2 -30 4 -71 4 -91 0
-23 7 -45 18 -58 37 -41 42 -28 49 153 6 166 20 325 33 377 11 47 32 -128 43
-365 6 -126 15 -234 20 -239 7 -7 10 1 10 21 0 101 31 395 48 448 4 15 8 11
13 -20 13 -67 11 -105 -5 -99 -8 3 -17 1 -21 -5 -4 -7 3 -11 18 -11 24 0 25
-3 31 -92 3 -51 8 -177 12 -280 4 -104 10 -188 15 -188 5 0 9 20 9 44 0 60 8
76 36 76 23 0 24 -3 24 -70 0 -40 4 -70 10 -70 6 0 10 10 10 23 0 46 21 253
27 267 10 23 21 -72 22 -182 l1 -96 -40 -51 c-66 -83 -64 -83 -192 10 -62 45
-133 97 -158 115 l-46 32 -159 -114 c-87 -63 -162 -114 -166 -114 -9 0 -81 79
-104 113 -15 23 -16 42 -10 134 3 60 9 122 12 138 l6 30 9 -30 c4 -16 11 -85
15 -152 3 -68 10 -123 15 -123 4 0 8 23 8 50 0 47 2 50 25 50 14 0 25 5 25 11
0 6 -9 9 -20 6 -13 -3 -20 0 -20 9 0 8 10 14 25 14 24 0 25 -3 25 -60 0 -33 4
-60 9 -60 11 0 19 90 26 330 7 212 10 230 36 230 10 0 19 5 19 10 0 6 -9 10
-20 10 -19 0 -20 4 -14 53 6 47 23 97 24 72 0 -5 7 -53 15 -105 8 -52 18 -157
22 -233 10 -229 27 -183 38 108 6 150 20 308 32 355 13 49 33 -122 39 -337z
m171 294 c1 -2 -2 -41 -7 -87 -5 -46 -13 -155 -16 -243 -7 -146 -8 -157 -21
-132 -9 16 -12 41 -9 63 3 20 0 66 -8 102 -12 57 -12 67 1 82 16 18 10 53 -11
61 -19 7 -57 -30 -50 -48 4 -8 11 -15 16 -15 7 0 8 -14 3 -37 -4 -21 -10 -78
-14 -127 -3 -51 -11 -91 -17 -93 -8 -3 -13 56 -17 189 -4 106 -10 214 -13 240
-6 45 -6 47 22 51 27 5 135 0 141 -6z m-248 -94 c-5 -37 -8 -92 -8 -120 -1
-29 -5 -53 -9 -53 -7 0 -19 74 -35 204 -2 19 39 50 53 41 3 -2 3 -34 -1 -72z
m375 57 c5 -5 0 -60 -10 -127 l-18 -118 -7 60 c-4 33 -10 93 -13 133 l-7 74
23 -7 c13 -4 27 -11 32 -15z m-494 -185 c-10 -90 -20 -143 -25 -132 -9 21 -38
22 -59 1 -15 -14 -17 -14 -22 0 -9 22 -51 20 -64 -3 -7 -15 -6 -23 5 -35 13
-13 14 -32 4 -138 -6 -68 -14 -143 -18 -168 l-7 -45 -21 65 c-30 88 -37 162
-23 245 20 128 102 263 204 337 21 15 40 27 41 26 2 -2 -5 -70 -15 -153z m651
75 c126 -125 179 -321 134 -494 -30 -114 -39 -113 -47 5 -4 58 -11 132 -17
165 -7 48 -6 62 6 76 21 24 8 58 -22 58 -13 0 -28 -8 -34 -17 -9 -17 -10 -17
-16 0 -9 21 -38 22 -59 1 -9 -8 -16 -14 -16 -12 0 2 -7 66 -15 143 -8 77 -15
144 -15 148 0 16 46 -18 101 -73z m-732 -345 c-7 -47 -14 -83 -17 -80 -3 2
-10 40 -17 82 -11 67 -11 80 2 95 14 15 17 15 30 2 13 -13 13 -26 2 -99z m63
25 l-6 -85 -12 70 c-10 61 -10 72 4 88 8 9 16 16 18 15 1 -2 0 -41 -4 -88z
m623 7 c-13 -95 -24 -97 -24 -4 -1 81 0 87 15 73 13 -13 14 -27 9 -69z m74
-32 c-7 -47 -14 -83 -17 -80 -3 2 -10 40 -17 82 -11 67 -11 80 2 95 14 15 17
15 30 2 13 -13 13 -26 2 -99z m-715 -119 c5 -41 4 -47 -10 -42 -9 3 -20 6 -26
6 -9 0 -3 93 10 135 4 16 7 13 13 -15 3 -19 9 -57 13 -84z m675 -1 c1 -35 -2
-41 -20 -41 -20 0 -20 4 -14 65 9 88 18 105 27 56 4 -22 7 -58 7 -80z m-205
-208 c77 -56 140 -106 140 -112 1 -12 -123 -77 -134 -70 -4 3 -11 20 -14 39
-9 47 -81 153 -118 172 -27 14 -32 14 -54 -1 -37 -24 -92 -104 -111 -162 -9
-29 -19 -53 -22 -53 -12 0 -133 66 -135 73 -1 8 285 216 299 216 6 0 73 -46
149 -102z m-88 -32 c32 -42 76 -147 66 -157 -4 -4 -22 -10 -39 -14 -30 -6 -31
-5 -38 37 -8 53 -40 129 -53 129 -13 0 -40 -68 -48 -120 -8 -48 -12 -52 -53
-44 -20 4 -31 12 -31 24 0 31 61 138 96 169 41 36 57 32 100 -24z m-31 -132
l7 -43 -37 0 -38 0 6 43 c3 24 11 57 18 73 l11 29 13 -30 c7 -16 16 -49 20
-72z"/>
<path d="M765 1140 c-3 -5 3 -10 14 -10 12 0 21 5 21 10 0 6 -6 10 -14 10 -8
0 -18 -4 -21 -10z"/>
<path d="M1005 1140 c-3 -5 3 -10 14 -10 12 0 21 5 21 10 0 6 -6 10 -14 10 -8
0 -18 -4 -21 -10z"/>
<path d="M765 1100 c-3 -5 3 -10 14 -10 12 0 21 5 21 10 0 6 -6 10 -14 10 -8
0 -18 -4 -21 -10z"/>
<path d="M1005 1100 c-3 -5 3 -10 14 -10 12 0 21 5 21 10 0 6 -6 10 -14 10 -8
0 -18 -4 -21 -10z"/>
<path d="M645 1060 c-3 -5 3 -10 14 -10 12 0 21 5 21 10 0 6 -6 10 -14 10 -8
0 -18 -4 -21 -10z"/>
<path d="M765 1060 c-3 -5 3 -10 14 -10 12 0 21 5 21 10 0 6 -6 10 -14 10 -8
0 -18 -4 -21 -10z"/>
<path d="M1005 1060 c-3 -5 3 -10 14 -10 12 0 21 5 21 10 0 6 -6 10 -14 10 -8
0 -18 -4 -21 -10z"/>
<path d="M1125 1060 c-3 -5 3 -10 15 -10 12 0 18 5 15 10 -3 6 -10 10 -15 10
-5 0 -12 -4 -15 -10z"/>
<path d="M645 1020 c-3 -5 3 -10 14 -10 12 0 21 5 21 10 0 6 -6 10 -14 10 -8
0 -18 -4 -21 -10z"/>
<path d="M765 1020 c-3 -5 3 -10 14 -10 12 0 21 5 21 10 0 6 -6 10 -14 10 -8
0 -18 -4 -21 -10z"/>
<path d="M1005 1020 c-3 -5 3 -10 14 -10 12 0 21 5 21 10 0 6 -6 10 -14 10 -8
0 -18 -4 -21 -10z"/>
<path d="M1125 1020 c-3 -5 3 -10 14 -10 12 0 21 5 21 10 0 6 -6 10 -14 10 -8
0 -18 -4 -21 -10z"/>
<path d="M645 980 c-3 -5 3 -10 14 -10 12 0 21 5 21 10 0 6 -6 10 -14 10 -8 0
-18 -4 -21 -10z"/>
<path d="M765 980 c-3 -5 3 -10 14 -10 12 0 21 5 21 10 0 6 -6 10 -14 10 -8 0
-18 -4 -21 -10z"/>
<path d="M1005 980 c-3 -5 3 -10 14 -10 12 0 21 5 21 10 0 6 -6 10 -14 10 -8
0 -18 -4 -21 -10z"/>
<path d="M1125 980 c-3 -5 3 -10 14 -10 12 0 21 5 21 10 0 6 -6 10 -14 10 -8
0 -18 -4 -21 -10z"/>
<path d="M645 940 c-3 -5 3 -10 14 -10 12 0 21 5 21 10 0 6 -6 10 -14 10 -8 0
-18 -4 -21 -10z"/>
<path d="M765 940 c-3 -5 3 -10 14 -10 12 0 21 5 21 10 0 6 -6 10 -14 10 -8 0
-18 -4 -21 -10z"/>
<path d="M1005 940 c-3 -5 3 -10 14 -10 12 0 21 5 21 10 0 6 -6 10 -14 10 -8
0 -18 -4 -21 -10z"/>
<path d="M1125 940 c-3 -5 3 -10 15 -10 12 0 18 5 15 10 -3 6 -10 10 -15 10
-5 0 -12 -4 -15 -10z"/>
<path d="M645 900 c-3 -5 3 -10 14 -10 12 0 21 5 21 10 0 6 -6 10 -14 10 -8 0
-18 -4 -21 -10z"/>
<path d="M765 900 c-3 -5 3 -10 14 -10 12 0 21 5 21 10 0 6 -6 10 -14 10 -8 0
-18 -4 -21 -10z"/>
<path d="M1005 900 c-3 -5 3 -10 14 -10 12 0 21 5 21 10 0 6 -6 10 -14 10 -8
0 -18 -4 -21 -10z"/>
<path d="M1125 900 c-3 -5 3 -10 14 -10 12 0 21 5 21 10 0 6 -6 10 -14 10 -8
0 -18 -4 -21 -10z"/>
<path d="M645 860 c-3 -5 3 -10 14 -10 12 0 21 5 21 10 0 6 -6 10 -14 10 -8 0
-18 -4 -21 -10z"/>
<path d="M765 860 c-3 -5 3 -10 15 -10 12 0 18 5 15 10 -3 6 -10 10 -15 10 -5
0 -12 -4 -15 -10z"/>
<path d="M1005 860 c-3 -5 3 -10 14 -10 12 0 21 5 21 10 0 6 -6 10 -14 10 -8
0 -18 -4 -21 -10z"/>
<path d="M1125 860 c-3 -5 3 -10 14 -10 12 0 21 5 21 10 0 6 -6 10 -14 10 -8
0 -18 -4 -21 -10z"/>
<path d="M645 820 c-3 -5 3 -10 14 -10 12 0 21 5 21 10 0 6 -6 10 -14 10 -8 0
-18 -4 -21 -10z"/>
<path d="M765 820 c-3 -5 3 -10 14 -10 12 0 21 5 21 10 0 6 -6 10 -14 10 -8 0
-18 -4 -21 -10z"/>
<path d="M1005 820 c-3 -5 3 -10 14 -10 12 0 21 5 21 10 0 6 -6 10 -14 10 -8
0 -18 -4 -21 -10z"/>
<path d="M1125 820 c-3 -5 3 -10 14 -10 12 0 21 5 21 10 0 6 -6 10 -14 10 -8
0 -18 -4 -21 -10z"/>
<path d="M645 780 c-3 -5 3 -10 14 -10 12 0 21 5 21 10 0 6 -6 10 -14 10 -8 0
-18 -4 -21 -10z"/>
<path d="M1125 780 c-3 -5 3 -10 14 -10 12 0 21 5 21 10 0 6 -6 10 -14 10 -8
0 -18 -4 -21 -10z"/>
<path d="M788 733 c-9 -10 -19 -37 -23 -60 l-7 -43 42 0 43 0 -6 46 c-2 25
-11 52 -19 60 -12 13 -16 12 -30 -3z m32 -60 c0 -16 -6 -23 -20 -23 -17 0 -19
4 -14 28 4 15 9 31 12 36 7 12 22 -15 22 -41z"/>
<path d="M988 733 c-9 -10 -19 -37 -23 -60 l-7 -43 42 0 43 0 -6 46 c-2 25
-11 52 -19 60 -12 13 -16 12 -30 -3z m32 -60 c0 -16 -6 -23 -20 -23 -17 0 -19
4 -14 28 4 15 9 31 12 36 7 12 22 -15 22 -41z"/>
<path d="M668 693 c-9 -10 -19 -37 -23 -60 l-7 -43 42 0 43 0 -6 46 c-2 25
-11 52 -19 60 -12 13 -16 12 -30 -3z m32 -60 c0 -16 -6 -23 -20 -23 -17 0 -19
4 -14 28 4 15 9 31 12 36 7 12 22 -15 22 -41z"/>
<path d="M1108 693 c-9 -10 -19 -37 -23 -60 l-7 -43 42 0 43 0 -6 46 c-2 25
-11 52 -19 60 -12 13 -16 12 -30 -3z m32 -60 c0 -16 -6 -23 -20 -23 -17 0 -19
4 -14 28 4 15 9 31 12 36 7 12 22 -15 22 -41z"/>
<path d="M1225 620 c-3 -5 3 -10 14 -10 12 0 21 5 21 10 0 6 -6 10 -14 10 -8
0 -18 -4 -21 -10z"/>
<path d="M545 580 c-3 -5 3 -10 14 -10 12 0 21 5 21 10 0 6 -6 10 -14 10 -8 0
-18 -4 -21 -10z"/>
<path d="M1225 580 c-3 -5 3 -10 14 -10 12 0 21 5 21 10 0 6 -6 10 -14 10 -8
0 -18 -4 -21 -10z"/>
<path d="M545 540 c-3 -5 3 -10 14 -10 12 0 21 5 21 10 0 6 -6 10 -14 10 -8 0
-18 -4 -21 -10z"/>
<path d="M1225 540 c-3 -5 3 -10 14 -10 12 0 21 5 21 10 0 6 -6 10 -14 10 -8
0 -18 -4 -21 -10z"/>
</g>
</svg>
