<?xml version="1.0" standalone="no"?>
<!DOCTYPE svg PUBLIC "-//W3C//DTD SVG 20010904//EN"
 "http://www.w3.org/TR/2001/REC-SVG-20010904/DTD/svg10.dtd">
<svg version="1.0" xmlns="http://www.w3.org/2000/svg"
 width="180.000000pt" height="180.000000pt" viewBox="0 0 180.000000 180.000000"
 preserveAspectRatio="xMidYMid meet">

<g transform="translate(0.000000,180.000000) scale(0.100000,-0.100000)"
fill="#3a4e6e" stroke="none">
<path d="M1119 1445 c-15 -8 -29 -21 -32 -29 -4 -9 -22 -22 -41 -30 -19 -8
-37 -22 -40 -33 -5 -16 -18 -18 -113 -19 -92 0 -118 -4 -176 -27 l-69 -27 -30
30 c-21 21 -39 30 -62 30 -36 0 -86 -33 -86 -55 0 -8 -13 -21 -29 -30 -16 -8
-33 -24 -36 -36 -10 -30 14 -69 47 -76 l28 -5 -20 -29 c-44 -61 -81 -157 -92
-240 -20 -154 30 -312 138 -428 170 -184 423 -230 646 -119 79 40 182 142 225
223 124 236 59 533 -151 687 l-39 28 51 0 c33 0 56 6 67 16 22 23 15 67 -12
79 -13 5 -23 18 -23 28 0 10 -13 32 -29 48 -33 33 -78 38 -122 14z m105 -26
c15 -12 26 -30 26 -45 0 -17 8 -27 26 -34 19 -7 25 -16 22 -33 -3 -21 -7 -22
-125 -25 -120 -3 -122 -2 -138 22 -13 19 -14 29 -5 45 6 12 17 21 25 21 8 0
30 16 49 35 41 41 80 46 120 14z m-626 -115 c12 -8 22 -22 22 -30 0 -18 53
-74 70 -74 6 0 10 -8 8 -17 -3 -16 -18 -18 -113 -21 -123 -3 -150 1 -159 24
-9 22 11 54 34 54 11 0 20 7 20 15 0 24 46 65 72 65 13 0 34 -7 46 -16z m424
-17 c23 -22 36 -27 78 -27 59 0 105 -27 183 -106 148 -152 180 -400 79 -594
-16 -30 -37 -56 -46 -58 -14 -3 -16 14 -16 166 0 127 3 172 13 176 10 5 10 7
0 12 -15 7 -18 84 -3 84 6 0 10 5 10 10 0 6 -13 10 -30 10 -29 0 -30 1 -30 50
0 28 5 50 10 50 6 0 10 5 10 10 0 6 -47 10 -120 10 -112 0 -120 1 -120 19 0
16 -8 20 -42 23 -37 3 -43 6 -46 28 -6 52 -13 70 -27 70 -10 0 -15 10 -15 30
0 17 -4 30 -10 30 -5 0 -10 -13 -10 -30 0 -19 -5 -30 -14 -30 -9 0 -16 -18
-20 -50 l-7 -50 -44 0 c-38 0 -45 -3 -45 -20 0 -19 -7 -20 -122 -20 -95 0
-119 -3 -110 -12 7 -7 12 -34 12 -60 l0 -48 -42 0 c-33 0 -39 -3 -30 -12 15
-15 16 -88 1 -88 -8 0 -8 -4 0 -14 8 -9 11 -65 9 -177 l-3 -164 -33 64 c-86
165 -75 369 30 522 l33 49 96 0 c60 0 99 4 107 12 18 18 15 56 -6 62 -9 3 -23
15 -29 26 -11 17 -9 21 17 35 53 28 143 44 225 42 73 -2 83 -5 107 -30z m-92
-127 c0 -38 -2 -40 -30 -40 -32 0 -33 2 -24 49 5 24 12 31 30 31 21 0 24 -5
24 -40z m90 -130 l0 -70 -120 0 -120 0 0 70 0 70 120 0 120 0 0 -70z m-260 21
c0 -5 -10 -12 -22 -14 l-23 -4 23 -8 c35 -12 26 -25 -19 -25 -24 0 -38 -4 -34
-10 3 -5 22 -10 41 -10 19 0 34 -4 34 -10 0 -6 -40 -10 -100 -10 l-100 0 0 50
0 50 100 0 c55 0 100 -4 100 -9z m480 -41 l0 -50 -100 0 c-60 0 -100 4 -100
10 0 6 18 10 40 10 22 0 40 5 40 10 0 6 -18 10 -40 10 -22 0 -40 5 -40 10 0 6
9 10 20 10 11 0 20 5 20 10 0 6 -9 10 -20 10 -11 0 -20 5 -20 10 0 6 40 10
100 10 l100 0 0 -50z m40 -110 l0 -40 -390 0 -390 0 0 40 0 40 390 0 390 0 0
-40z m-742 -82 c-5 -34 -38 -37 -38 -4 0 20 5 26 21 26 15 0 20 -5 17 -22z
m82 -148 l0 -170 -30 0 -30 0 0 170 0 170 30 0 30 0 0 -170z m58 148 c-5 -34
-38 -37 -38 -4 0 20 5 26 21 26 15 0 20 -5 17 -22z m82 -148 l0 -170 -30 0
-30 0 0 170 0 170 30 0 30 0 0 -170z m58 148 c-5 -34 -38 -37 -38 -4 0 20 5
26 21 26 15 0 20 -5 17 -22z m122 -148 l0 -170 -50 0 -50 0 0 170 0 170 50 0
50 0 0 -170z m60 144 c0 -33 -33 -30 -38 4 -3 17 2 22 17 22 16 0 21 -6 21
-26z m80 -144 l0 -170 -30 0 -30 0 0 170 0 170 30 0 30 0 0 -170z m60 144 c0
-33 -33 -30 -38 4 -3 17 2 22 17 22 16 0 21 -6 21 -26z m80 -144 l0 -170 -30
0 -30 0 0 170 0 170 30 0 30 0 0 -170z m60 144 c0 -33 -33 -30 -38 4 -3 17 2
22 17 22 16 0 21 -6 21 -26z m-740 -59 c0 -16 -27 -32 -37 -22 -3 4 -3 13 0
22 8 20 37 20 37 0z m140 0 c0 -16 -27 -32 -37 -22 -3 4 -3 13 0 22 8 20 37
20 37 0z m140 -5 c0 -13 -7 -20 -20 -20 -19 0 -27 20 -13 33 13 14 33 6 33
-13z m180 -1 c0 -25 -33 -22 -38 4 -2 12 3 17 17 17 15 0 21 -6 21 -21z m140
0 c0 -25 -33 -22 -38 4 -2 12 3 17 17 17 15 0 21 -6 21 -21z m140 0 c0 -14 -5
-19 -17 -17 -26 5 -29 38 -4 38 15 0 21 -6 21 -21z m-600 -54 c0 -18 -5 -25
-20 -25 -25 0 -26 25 -2 39 23 14 22 14 22 -14z m-140 0 c0 -16 -27 -32 -37
-22 -3 4 -3 13 0 22 8 20 37 20 37 0z m280 0 c0 -16 -27 -32 -37 -22 -3 4 -3
13 0 22 8 20 37 20 37 0z m180 -6 c0 -14 -5 -19 -17 -17 -26 5 -29 38 -4 38
15 0 21 -6 21 -21z m140 0 c0 -14 -5 -19 -17 -17 -26 5 -29 38 -4 38 15 0 21
-6 21 -21z m140 0 c0 -14 -5 -19 -17 -17 -26 5 -29 38 -4 38 15 0 21 -6 21
-21z m-740 -54 c0 -18 -5 -25 -20 -25 -25 0 -26 25 -2 39 23 14 22 14 22 -14z
m140 -5 c0 -13 -7 -20 -20 -20 -19 0 -27 20 -13 33 13 14 33 6 33 -13z m140 5
c0 -16 -27 -32 -37 -22 -3 4 -3 13 0 22 8 20 37 20 37 0z m180 -6 c0 -14 -5
-19 -17 -17 -26 5 -29 38 -4 38 15 0 21 -6 21 -21z m140 0 c0 -14 -5 -19 -17
-17 -26 5 -29 38 -4 38 15 0 21 -6 21 -21z m140 0 c0 -14 -5 -19 -17 -17 -26
5 -29 38 -4 38 15 0 21 -6 21 -21z m-740 -84 c0 -38 -3 -45 -20 -45 -17 0 -20
7 -20 38 0 41 6 52 27 52 9 0 13 -14 13 -45z m140 0 c0 -38 -3 -45 -20 -45
-17 0 -20 7 -20 38 0 41 6 52 27 52 9 0 13 -14 13 -45z m140 0 c0 -38 -3 -45
-20 -45 -17 0 -20 7 -20 38 0 41 6 52 27 52 9 0 13 -14 13 -45z m180 0 c0 -38
-3 -45 -20 -45 -17 0 -20 7 -20 45 0 38 3 45 20 45 17 0 20 -7 20 -45z m140 0
c0 -38 -3 -45 -20 -45 -17 0 -20 7 -20 45 0 38 3 45 20 45 17 0 20 -7 20 -45z
m140 0 c0 -38 -3 -45 -20 -45 -17 0 -20 7 -20 45 0 38 3 45 20 45 17 0 20 -7
20 -45z m-23 -121 c-214 -201 -550 -186 -741 34 l-19 22 409 0 409 -1 -58 -55z"/>
</g>
</svg>
