<?xml version="1.0" standalone="no"?>
<!DOCTYPE svg PUBLIC "-//W3C//DTD SVG 20010904//EN"
 "http://www.w3.org/TR/2001/REC-SVG-20010904/DTD/svg10.dtd">
<svg version="1.0" xmlns="http://www.w3.org/2000/svg"
 width="250.000000pt" height="250.000000pt" viewBox="0 0 250.000000 250.000000"
 preserveAspectRatio="xMidYMid meet">

<g transform="translate(0.000000,250.000000) scale(0.100000,-0.100000)"
fill="#3a4e6e" stroke="none">
<path d="M1232 2350 c-9 -15 -10 -26 -2 -40 14 -27 12 -76 -4 -108 -19 -36
-62 -76 -74 -68 -13 8 -22 -28 -22 -87 0 -29 -5 -49 -12 -52 -7 -2 -56 -15
-108 -30 -110 -30 -199 -69 -287 -126 -44 -29 -75 -41 -106 -43 -97 -7 -155
-68 -111 -117 15 -16 13 -22 -29 -81 -58 -82 -89 -144 -120 -244 -51 -161 -59
-368 -22 -524 21 -87 103 -257 165 -339 259 -351 744 -472 1145 -287 437 202
647 698 493 1163 -37 111 -101 220 -197 331 -39 45 -71 84 -71 87 0 3 11 5 24
5 39 0 76 36 76 76 0 39 -36 84 -68 84 -10 0 -33 11 -52 25 -43 32 -87 32
-131 0 -67 -48 -71 -49 -215 -13 l-132 33 -6 35 c-3 19 -6 49 -6 67 0 23 -4
31 -14 27 -17 -6 -73 57 -82 93 -4 15 -3 48 2 74 7 34 7 52 -2 63 -14 20 -17
20 -32 -4z m43 -196 c26 -17 58 -64 70 -102 6 -22 5 -23 -37 -20 -39 3 -43 6
-46 31 -2 15 -7 27 -12 27 -5 0 -10 -12 -12 -27 -3 -25 -7 -28 -45 -31 -47 -3
-54 8 -32 51 14 27 70 87 81 87 5 0 20 -7 33 -16z m73 -221 c-3 -75 -4 -78
-28 -78 -21 0 -25 6 -32 43 -9 53 -14 62 -37 62 -25 0 -39 -19 -49 -66 -6 -29
-13 -39 -27 -39 -18 0 -20 8 -23 78 l-3 77 101 0 101 0 -3 -77z m483 27 c24
-16 52 -30 62 -30 10 0 27 -5 38 -10 27 -15 27 -85 0 -100 -27 -14 -178 -24
-245 -16 -47 6 -59 12 -68 31 -14 30 12 75 43 75 11 0 32 13 47 29 25 26 59
50 73 51 3 0 26 -13 50 -30z m-697 -6 c13 -34 6 -84 -14 -101 -22 -19 -27 -72
-9 -90 9 -9 -8 -32 -65 -92 -82 -86 -100 -118 -111 -196 -4 -27 -13 -60 -21
-72 -8 -12 -10 -24 -5 -28 16 -9 25 -114 12 -141 -9 -20 -18 -24 -51 -24 -41
0 -49 -7 -28 -28 13 -13 24 -158 14 -197 -9 -35 -23 -24 -31 25 -9 51 -21 44
-28 -16 -3 -31 -13 -54 -30 -71 l-25 -25 -4 195 c-3 167 -6 198 -21 215 -21
23 -22 40 -2 62 14 15 14 18 0 30 -8 7 -15 20 -15 30 0 10 -20 38 -45 63 -48
49 -51 57 -33 75 9 10 8 16 -5 29 -16 16 -18 16 -33 1 -13 -13 -14 -20 -4 -38
14 -25 7 -50 -14 -50 -18 0 -66 -56 -66 -77 0 -9 -7 -24 -15 -33 -14 -15 -14
-18 0 -30 22 -18 19 -46 -7 -65 -23 -15 -23 -19 -28 -299 -4 -219 -8 -287 -19
-299 -20 -25 -27 -21 -49 32 -46 105 -65 333 -41 480 20 128 81 270 164 387
l44 61 63 7 c35 4 68 12 75 18 19 16 16 45 -7 61 -21 14 -20 15 10 41 61 50
166 105 270 140 116 39 164 45 174 20z m381 -12 l80 -27 0 -43 c0 -64 26 -82
121 -82 95 0 125 -14 195 -86 100 -104 167 -218 221 -377 27 -80 32 -109 36
-227 5 -147 -9 -249 -48 -352 -23 -62 -30 -67 -51 -41 -11 12 -15 80 -19 299
-5 280 -5 284 -27 299 -27 19 -30 50 -6 64 17 9 17 10 0 28 -9 11 -17 27 -17
35 0 9 -20 36 -45 61 -48 49 -51 57 -33 75 10 10 8 16 -5 29 -16 16 -18 16
-34 0 -13 -13 -14 -19 -5 -29 18 -18 15 -26 -33 -75 -25 -25 -45 -52 -45 -61
0 -8 -7 -23 -15 -32 -14 -15 -14 -18 0 -30 20 -16 19 -39 -2 -62 -15 -17 -18
-48 -21 -215 l-4 -195 -25 25 c-17 17 -27 40 -30 71 -7 60 -19 67 -27 16 -7
-46 -32 -54 -42 -15 -10 41 0 137 19 174 9 19 17 36 17 38 0 1 -21 3 -46 3
l-45 0 2 93 c2 99 -13 209 -36 263 -7 18 -48 67 -91 108 -62 59 -76 78 -66 88
19 19 15 71 -8 91 -20 17 -27 67 -14 101 9 23 57 20 149 -12z m-247 -50 c3
-37 1 -42 -17 -42 -18 0 -21 6 -21 38 0 68 33 71 38 4z m117 -92 c0 -12 -22
-15 -129 -18 -125 -3 -156 3 -141 27 4 8 49 11 138 9 109 -3 132 -6 132 -18z
m-751 -45 c3 -8 15 -15 26 -15 30 0 25 -29 -7 -41 -32 -12 -131 -5 -146 10
-12 12 7 39 38 51 34 14 82 11 89 -5z m722 -9 c32 -24 7 -31 -106 -31 -113 0
-138 7 -106 31 14 9 47 14 106 14 59 0 92 -5 106 -14z m-203 -62 c3 -4 0 -19
-8 -33 -17 -35 -45 -169 -45 -221 l0 -40 -75 0 -75 0 0 43 c0 65 26 138 64
183 47 55 118 89 139 68z m174 -19 c19 -26 43 -147 43 -214 l0 -61 -125 0
-125 0 0 33 c0 59 31 204 51 237 20 32 21 33 82 27 41 -4 65 -11 74 -22z m122
-13 c61 -49 93 -111 99 -192 l5 -70 -75 0 -75 0 -7 38 c-3 20 -6 51 -6 68 0
18 -11 69 -24 114 l-24 82 36 -6 c19 -3 52 -18 71 -34z m-825 -203 c9 -22 14
-45 11 -50 -9 -14 -65 -11 -71 5 -6 17 21 86 34 86 6 0 17 -18 26 -41z m-70 4
c-11 -47 -24 -67 -37 -54 -8 8 -6 20 6 46 20 42 40 47 31 8z m128 -32 c4 -34
-20 -38 -28 -4 -3 15 -8 37 -11 48 l-5 20 21 -20 c11 -11 22 -31 23 -44z
m1172 32 c-11 -45 -25 -66 -36 -55 -7 7 -4 22 7 46 20 42 38 48 29 9z m72 -8
c18 -43 12 -55 -26 -55 -16 0 -31 4 -35 10 -8 13 21 80 35 80 6 0 18 -16 26
-35z m49 4 c16 -31 14 -59 -4 -59 -9 0 -31 60 -31 83 0 18 21 4 35 -24z
m-1425 -97 c0 -10 -6 -27 -14 -38 -14 -18 -15 -18 -21 8 -4 15 -4 32 0 37 10
18 35 12 35 -7z m85 -17 c0 -28 -3 -30 -35 -30 -26 0 -36 5 -38 18 -7 34 6 48
40 45 29 -3 33 -6 33 -33z m53 9 c3 -25 -13 -48 -27 -40 -12 8 -15 49 -4 60
11 11 28 1 31 -20z m862 -9 l0 -35 -300 0 -300 0 0 35 0 35 300 0 300 0 0 -35z
m295 0 c0 -16 -5 -30 -12 -32 -14 -5 -28 40 -18 57 12 19 30 4 30 -25z m90 0
c0 -28 -3 -30 -35 -30 -26 0 -36 5 -38 18 -7 34 6 48 40 45 29 -3 33 -6 33
-33z m53 9 c3 -25 -13 -48 -27 -40 -12 8 -15 49 -4 60 11 11 28 1 31 -20z
m-1360 -60 l92 -7 0 -152 0 -152 -92 -7 c-50 -3 -104 -6 -120 -6 l-28 0 0 165
0 165 28 0 c16 0 70 -3 120 -6z m367 -4 c21 -8 26 -16 23 -38 -3 -23 -8 -27
-33 -27 -24 0 -31 5 -33 23 -4 23 3 52 12 52 3 0 17 -5 31 -10z m110 -30 c0
-32 -2 -35 -30 -35 -24 0 -31 5 -33 23 -6 38 5 54 35 50 25 -3 28 -7 28 -38z
m90 0 c0 -32 -2 -35 -30 -35 -24 0 -31 5 -33 23 -6 38 5 54 35 50 25 -3 28 -7
28 -38z m85 25 c26 -32 -13 -81 -47 -59 -35 22 -23 74 17 74 10 0 23 -7 30
-15z m85 -25 c0 -32 -2 -35 -30 -35 -24 0 -31 5 -33 23 -6 38 5 54 35 50 25
-3 28 -7 28 -38z m90 0 c0 -32 -2 -35 -30 -35 -26 0 -30 4 -33 29 -4 32 12 48
43 44 16 -2 20 -11 20 -38z m90 0 c0 -31 -3 -35 -25 -35 -19 0 -26 6 -28 23
-5 36 5 54 30 50 19 -2 23 -9 23 -38z m475 -125 l0 -165 -120 0 -120 0 0 159
c0 186 -15 167 143 170 l97 1 0 -165z m-390 56 c0 -29 -56 -32 -430 -29 -294
3 -325 5 -328 20 -2 9 5 18 15 21 10 3 181 5 381 6 351 1 362 0 362 -18z
m-610 -84 c0 -29 -15 -48 -65 -81 -59 -39 -65 -36 -65 39 l0 65 65 0 c61 0 65
-1 65 -23z m440 -200 c0 -123 -3 -227 -7 -230 -3 -4 -16 10 -28 30 -12 21 -26
37 -32 36 -6 -1 -13 50 -17 133 -4 75 -11 147 -16 160 -13 32 -36 40 -59 20
-16 -14 -20 -40 -26 -166 -6 -135 -9 -150 -25 -150 -16 0 -19 15 -25 148 -5
110 -11 151 -23 165 -19 22 -35 22 -56 -2 -13 -14 -18 -48 -23 -164 -4 -90
-10 -145 -16 -144 -6 1 -20 -15 -32 -36 -12 -20 -25 -34 -28 -30 -4 3 -7 107
-7 230 l0 223 210 0 210 0 0 -223z m150 153 l0 -71 -29 15 c-56 30 -91 66 -91
97 0 29 0 29 60 29 l60 0 0 -70z m-414 -35 c11 -45 0 -363 -13 -376 -7 -7 -16
-9 -20 -5 -10 9 -17 347 -9 381 8 32 34 32 42 0z m150 0 c11 -45 0 -363 -13
-376 -7 -7 -16 -9 -20 -5 -10 9 -17 347 -9 381 8 32 34 32 42 0z m-326 -180
c0 -102 -2 -185 -5 -185 -3 0 -18 20 -34 45 l-28 45 -29 -43 -29 -42 -3 140
c-1 76 -1 144 2 150 6 16 96 75 113 75 10 0 13 -38 13 -185z m536 153 l49 -33
2 -160 2 -160 -25 48 c-13 26 -29 47 -35 47 -5 0 -19 -16 -30 -35 -12 -19 -23
-35 -25 -35 -2 0 -4 81 -4 180 0 99 4 180 9 180 5 0 31 -15 57 -32z m-867 -44
l31 -6 -1 -277 c0 -152 -3 -294 -7 -315 l-7 -39 -50 42 c-28 24 -78 75 -112
115 l-63 71 0 208 0 207 89 0 c49 0 103 -3 120 -6z m167 -7 c2 -7 3 -74 2
-148 l-3 -134 -23 39 c-19 32 -25 36 -38 25 -8 -7 -24 -29 -34 -48 l-19 -36 0
110 c-1 121 9 149 65 186 34 22 43 23 50 6z m839 -7 c58 -36 65 -57 65 -182
l0 -113 -27 48 c-14 26 -30 47 -35 47 -4 0 -21 -21 -38 -47 l-30 -48 0 151 c0
83 3 154 7 157 11 11 24 8 58 -13z m325 -190 l0 -210 -102 -106 c-56 -58 -110
-110 -120 -115 -17 -9 -18 5 -18 310 0 296 1 320 18 324 9 3 63 5 120 6 l102
1 0 -210z m-1185 -92 c23 -50 25 -63 25 -235 0 -128 -3 -183 -11 -183 -6 0
-34 12 -61 27 l-49 27 3 166 c3 163 4 168 31 208 15 23 30 42 33 42 3 0 16
-24 29 -52z m150 0 c24 -51 25 -61 25 -270 l0 -217 -61 21 -60 20 3 207 c3
207 3 208 31 249 15 23 30 42 33 42 3 0 16 -24 29 -52z m160 -22 c18 -43 22
-470 5 -481 -6 -4 -33 -4 -61 0 l-50 7 3 232 3 233 28 42 c28 42 29 43 43 22
8 -11 21 -36 29 -55z m150 0 c12 -28 15 -86 15 -261 l0 -225 -61 0 -60 0 3
238 3 239 28 42 c28 42 29 43 43 22 8 -11 21 -36 29 -55z m146 9 c16 -35 19
-69 19 -257 0 -119 -4 -219 -8 -222 -5 -3 -32 -8 -60 -12 l-52 -7 0 230 c0
227 0 230 26 281 23 45 28 51 42 40 8 -7 23 -31 33 -53z m159 -25 c5 -19 10
-119 10 -222 l0 -186 -60 -20 -60 -21 0 218 c0 215 0 218 27 271 l26 53 24
-29 c13 -16 28 -45 33 -64z m136 26 c22 -47 24 -64 24 -202 l0 -151 -50 -27
c-80 -43 -80 -42 -80 151 0 166 0 169 30 231 18 39 34 61 41 56 6 -3 22 -30
35 -58z m-1286 7 c-1 -36 -2 -37 -15 -19 -16 21 -19 39 -8 49 15 16 23 5 23
-30z m1628 16 c1 -8 -4 -23 -12 -34 -15 -19 -15 -18 -16 18 0 27 4 37 13 35 6
-3 13 -11 15 -19z"/>
<path d="M1216 1578 c-25 -35 -21 -103 6 -122 52 -36 84 0 75 83 -7 62 -50 83
-81 39z m62 -57 c-3 -39 -6 -46 -25 -49 -41 -6 -53 75 -15 105 26 21 43 -3 40
-56z"/>
<path d="M570 1200 c-10 -6 -16 -32 -18 -84 l-4 -76 51 0 51 0 0 60 c0 94 -30
132 -80 100z m48 -12 c15 -19 25 -84 18 -113 -5 -20 -13 -25 -36 -25 -23 0
-31 5 -36 25 -11 45 12 125 36 125 4 0 12 -6 18 -12z"/>
<path d="M1870 1200 c-10 -6 -16 -32 -18 -84 l-4 -76 51 0 51 0 0 60 c0 94
-30 132 -80 100z m48 -12 c15 -19 25 -84 18 -113 -5 -20 -13 -25 -36 -25 -23
0 -31 5 -36 25 -11 45 12 125 36 125 4 0 12 -6 18 -12z"/>
<path d="M563 858 c-4 -7 -10 -70 -11 -140 l-4 -128 51 0 51 0 -1 113 c-1 144
-6 161 -46 165 -18 2 -35 -2 -40 -10z m58 -14 c8 -10 14 -56 17 -125 l5 -109
-43 0 -43 0 5 108 c3 59 9 115 13 125 9 21 28 22 46 1z"/>
<path d="M1863 858 c-4 -7 -10 -70 -11 -140 l-4 -128 51 0 51 0 -1 113 c-1
144 -6 161 -46 165 -18 2 -35 -2 -40 -10z m58 -14 c8 -10 14 -56 17 -125 l5
-109 -43 0 -43 0 5 108 c3 59 9 115 13 125 9 21 28 22 46 1z"/>
</g>
</svg>
