<?xml version="1.0" standalone="no"?>
<!DOCTYPE svg PUBLIC "-//W3C//DTD SVG 20010904//EN"
 "http://www.w3.org/TR/2001/REC-SVG-20010904/DTD/svg10.dtd">
<svg version="1.0" xmlns="http://www.w3.org/2000/svg"
 width="180.000000pt" height="180.000000pt" viewBox="0 0 180.000000 180.000000"
 preserveAspectRatio="xMidYMid meet">

<g transform="translate(0.000000,180.000000) scale(0.100000,-0.100000)"
fill="#3a4e6e" stroke="none">
<path d="M897 1410 c-34 -50 -54 -71 -74 -76 -212 -46 -359 -172 -425 -361
-32 -95 -32 -260 2 -348 53 -139 146 -242 272 -305 191 -93 394 -74 564 53
323 243 269 740 -98 915 -84 41 -88 44 -133 117 -26 41 -50 75 -55 75 -4 0
-28 -31 -53 -70z m277 -295 l206 -310 -297 -3 -297 -2 -22 27 c-53 65 -56 49
61 325 124 292 124 293 135 282 4 -5 100 -148 214 -319z m-376 23 c-50 -117
-92 -215 -94 -217 -5 -5 -27 23 -45 56 -11 20 0 39 106 198 65 96 120 175 121
175 1 0 -39 -96 -88 -212z m-65 27 c-53 -80 -99 -145 -102 -145 -4 0 -15 14
-24 30 -10 17 -21 30 -25 30 -5 0 -48 -58 -97 -129 -50 -71 -91 -124 -93 -116
-2 7 4 42 12 79 42 177 166 316 346 382 19 7 45 13 58 13 19 1 10 -17 -75
-144z m428 89 c160 -84 269 -267 269 -452 0 -251 -189 -472 -438 -514 -159
-27 -330 29 -446 146 -33 34 -69 76 -79 94 l-18 32 245 0 c135 0 246 4 246 8
0 4 -31 53 -70 108 l-70 99 306 3 c259 2 305 4 301 16 -3 8 -78 123 -167 255
-88 133 -157 241 -154 241 3 0 37 -16 75 -36z m-328 -562 l78 -112 -237 2
-237 3 -15 43 c-16 49 -18 45 98 289 l63 132 86 -122 c48 -67 122 -173 164
-235z m-375 140 c-48 -105 -67 -124 -68 -70 0 16 111 189 118 183 1 -1 -21
-52 -50 -113z"/>
<path d="M960 1350 c0 -5 9 -10 20 -10 11 0 20 5 20 10 0 6 -9 10 -20 10 -11
0 -20 -4 -20 -10z"/>
<path d="M900 1250 c0 -5 14 -10 30 -10 17 0 30 5 30 10 0 6 -13 10 -30 10
-16 0 -30 -4 -30 -10z"/>
<path d="M880 1130 c0 -5 18 -10 40 -10 22 0 40 5 40 10 0 6 -18 10 -40 10
-22 0 -40 -4 -40 -10z"/>
<path d="M1020 1070 c0 -5 18 -10 40 -10 22 0 40 5 40 10 0 6 -18 10 -40 10
-22 0 -40 -4 -40 -10z"/>
<path d="M880 970 c0 -5 14 -10 30 -10 17 0 30 5 30 10 0 6 -13 10 -30 10 -16
0 -30 -4 -30 -10z"/>
<path d="M1100 950 c0 -5 18 -10 40 -10 22 0 40 5 40 10 0 6 -18 10 -40 10
-22 0 -40 -4 -40 -10z"/>
<path d="M760 890 c0 -6 27 -10 60 -10 33 0 60 4 60 10 0 6 -27 10 -60 10 -33
0 -60 -4 -60 -10z"/>
<path d="M1140 850 c0 -6 27 -10 60 -10 33 0 60 4 60 10 0 6 -27 10 -60 10
-33 0 -60 -4 -60 -10z"/>
<path d="M950 652 c0 -5 18 -15 40 -22 34 -11 44 -11 65 0 21 11 32 11 60 1
28 -10 42 -10 69 0 27 10 40 10 64 0 25 -10 37 -10 66 0 20 7 36 17 36 21 0
12 -34 10 -48 -4 -9 -9 -21 -8 -51 2 -32 10 -46 10 -70 0 -25 -10 -37 -10 -62
0 -25 11 -38 11 -65 1 -24 -9 -39 -9 -53 -2 -24 13 -51 14 -51 3z"/>
<path d="M700 492 c0 -5 18 -15 39 -22 32 -10 46 -10 70 0 25 10 37 10 62 0
25 -11 38 -11 65 -1 27 10 41 10 68 0 27 -10 40 -10 65 1 25 10 37 10 62 0 24
-10 38 -10 70 0 21 7 39 17 39 22 0 12 -27 10 -49 -4 -15 -9 -25 -9 -46 0 -33
15 -60 15 -84 0 -15 -9 -25 -9 -46 0 -33 15 -68 15 -83 0 -9 -9 -21 -8 -52 2
-33 11 -48 11 -75 1 -25 -9 -40 -9 -54 -2 -24 13 -51 14 -51 3z"/>
<path d="M580 910 c0 -5 9 -10 20 -10 11 0 20 5 20 10 0 6 -9 10 -20 10 -11 0
-20 -4 -20 -10z"/>
<path d="M500 790 c0 -5 14 -10 30 -10 17 0 30 5 30 10 0 6 -13 10 -30 10 -16
0 -30 -4 -30 -10z"/>
<path d="M620 710 c0 -6 27 -10 60 -10 33 0 60 4 60 10 0 6 -27 10 -60 10 -33
0 -60 -4 -60 -10z"/>
<path d="M520 650 c0 -5 14 -10 30 -10 17 0 30 5 30 10 0 6 -13 10 -30 10 -16
0 -30 -4 -30 -10z"/>
</g>
</svg>
