<?xml version="1.0" standalone="no"?>
<!DOCTYPE svg PUBLIC "-//W3C//DTD SVG 20010904//EN"
 "http://www.w3.org/TR/2001/REC-SVG-20010904/DTD/svg10.dtd">
<svg version="1.0" xmlns="http://www.w3.org/2000/svg"
 width="180.000000pt" height="180.000000pt" viewBox="0 0 180.000000 180.000000"
 preserveAspectRatio="xMidYMid meet">

<g transform="translate(0.000000,180.000000) scale(0.100000,-0.100000)"
fill="#000000" stroke="none">
<path d="M760 1525 c-175 -38 -346 -172 -428 -335 -127 -254 -82 -541 118
-740 252 -253 648 -253 900 0 253 252 253 648 0 900 -156 157 -373 221 -590
175z m264 -40 c269 -57 476 -311 476 -585 0 -321 -279 -600 -600 -600 -274 0
-528 207 -585 476 -43 201 16 396 165 544 148 149 343 208 544 165z"/>
<path d="M864 1366 c-17 -8 -41 -28 -54 -45 -12 -18 -25 -30 -27 -27 -3 3 -14
1 -24 -5 -14 -7 -19 -21 -19 -54 0 -43 -1 -45 -30 -45 -26 0 -30 4 -30 28 0
15 -5 33 -12 40 -17 17 -38 -4 -38 -39 0 -26 -3 -28 -47 -31 l-48 -3 -3 -147
-3 -148 -83 0 c-55 0 -87 -4 -94 -12 -13 -17 2 -111 28 -178 61 -154 189 -275
350 -331 50 -17 89 -22 165 -23 121 0 211 24 300 82 64 41 169 148 180 183 11
33 -10 45 -32 19 -10 -13 -30 -37 -45 -54 l-28 -31 3 150 2 150 68 3 c65 3 67
2 67 -21 0 -13 -7 -47 -16 -76 -10 -35 -12 -57 -6 -63 17 -17 30 -1 45 55 34
122 29 147 -30 147 -30 0 -33 3 -33 29 0 39 -25 60 -39 32 -6 -11 -11 -29 -11
-40 0 -16 -6 -21 -25 -21 -25 0 -25 2 -25 78 l0 77 -105 65 -105 65 0 53 c0
51 -1 54 -34 67 -18 8 -36 21 -39 29 -15 38 -81 60 -123 42z m72 -44 c6 -4 17
-20 25 -37 9 -18 23 -31 37 -33 22 -3 23 -7 20 -75 l-3 -72 -115 0 -115 0 -3
72 c-3 68 -2 72 20 75 14 2 28 15 37 33 17 36 28 45 61 45 14 0 30 -4 36 -8z
m-208 -851 c-10 -19 -10 -25 0 -28 11 -4 18 -33 7 -33 -12 0 -103 48 -133 70
-29 22 -32 29 -32 76 0 62 -7 84 -26 84 -10 0 -14 -13 -14 -46 0 -42 -2 -45
-17 -33 -46 38 -106 162 -118 242 l-7 48 68 -3 69 -3 3 -70 c3 -89 7 -101 27
-85 12 10 15 50 15 231 l0 218 83 3 82 3 3 -325 c2 -248 -1 -331 -10 -349z
m422 600 l75 -48 3 -259 c2 -258 2 -259 -20 -277 -39 -32 -143 -78 -147 -66
-2 6 3 15 10 20 11 7 12 12 2 29 -10 15 -13 100 -13 335 0 173 3 315 8 314 4
0 41 -22 82 -48z m-130 -301 l0 -290 -120 0 -120 0 0 290 0 290 120 0 120 0 0
-290z m-3 -346 c11 -29 -15 -38 -117 -38 -102 0 -128 9 -117 38 9 24 225 24
234 0z"/>
<path d="M880 1275 c0 -8 9 -15 20 -15 11 0 20 7 20 15 0 8 -9 15 -20 15 -11
0 -20 -7 -20 -15z"/>
<path d="M833 1174 c-8 -22 9 -30 65 -32 54 -2 78 9 69 32 -5 12 -21 16 -67
16 -46 0 -62 -4 -67 -16z"/>
<path d="M636 1085 c-7 -20 3 -45 19 -45 7 0 15 7 19 15 7 20 -3 45 -19 45 -7
0 -15 -7 -19 -15z"/>
<path d="M635 980 c-9 -15 4 -50 20 -50 16 0 26 25 19 45 -7 17 -30 20 -39 5z"/>
<path d="M640 875 c-14 -17 -4 -55 15 -55 18 0 27 28 15 51 -13 23 -14 23 -30
4z"/>
<path d="M641 766 c-15 -18 -5 -56 14 -56 21 0 30 40 13 57 -13 12 -16 12 -27
-1z"/>
<path d="M641 656 c-15 -18 -5 -56 14 -56 21 0 30 40 13 57 -13 12 -16 12 -27
-1z"/>
<path d="M1126 975 c-7 -20 3 -45 19 -45 16 0 29 35 20 50 -9 15 -32 12 -39
-5z"/>
<path d="M1131 872 c-13 -24 -5 -52 14 -52 21 0 29 40 12 57 -13 14 -16 13
-26 -5z"/>
<path d="M1131 766 c-15 -18 -5 -56 14 -56 21 0 30 40 13 57 -13 12 -16 12
-27 -1z"/>
<path d="M1131 656 c-15 -18 -5 -56 14 -56 21 0 30 40 13 57 -13 12 -16 12
-27 -1z"/>
<path d="M887 1014 c-4 -4 -7 -18 -7 -31 0 -17 6 -23 21 -23 16 0 20 5 17 27
-3 26 -18 39 -31 27z"/>
<path d="M887 904 c-4 -4 -7 -18 -7 -31 0 -17 6 -23 21 -23 16 0 20 5 17 27
-3 26 -18 39 -31 27z"/>
<path d="M882 773 c2 -17 9 -28 18 -28 9 0 16 11 18 28 3 22 -1 27 -18 27 -17
0 -21 -5 -18 -27z"/>
<path d="M882 663 c2 -17 9 -28 18 -28 9 0 16 11 18 28 3 22 -1 27 -18 27 -17
0 -21 -5 -18 -27z"/>
<path d="M882 553 c2 -17 9 -28 18 -28 9 0 16 11 18 28 3 22 -1 27 -18 27 -17
0 -21 -5 -18 -27z"/>
</g>
</svg>
