<?xml version="1.0" standalone="no"?>
<!DOCTYPE svg PUBLIC "-//W3C//DTD SVG 20010904//EN"
 "http://www.w3.org/TR/2001/REC-SVG-20010904/DTD/svg10.dtd">
<svg version="1.0" xmlns="http://www.w3.org/2000/svg"
 width="180.000000pt" height="180.000000pt" viewBox="0 0 180.000000 180.000000"
 preserveAspectRatio="xMidYMid meet">

<g transform="translate(0.000000,180.000000) scale(0.100000,-0.100000)"
fill="#3a4e6e" stroke="none">
<path d="M887 1550 c-4 -14 -10 -61 -15 -104 l-7 -80 -70 -12 c-80 -13 -126
-33 -205 -85 -70 -47 -110 -89 -155 -164 -129 -216 -97 -483 80 -660 209 -209
548 -209 759 0 105 103 156 229 156 380 0 151 -51 276 -156 381 -73 73 -200
141 -281 151 -29 3 -53 7 -53 9 0 2 -7 29 -16 61 -9 32 -20 78 -23 103 -6 39
-8 42 -14 20z m33 -224 c0 -34 3 -78 6 -98 6 -37 6 -38 -25 -38 -31 0 -31 0
-31 54 0 30 5 58 10 61 6 3 10 32 10 63 1 52 2 55 15 38 9 -12 15 -43 15 -80z
m-59 0 c-8 -9 -12 -47 -10 -106 1 -50 -1 -93 -5 -97 -3 -3 -6 -55 -6 -114 0
-75 -4 -115 -15 -135 -11 -21 -15 -61 -15 -142 0 -62 -4 -120 -10 -130 -5 -9
-12 -56 -15 -105 -6 -76 -9 -87 -25 -87 -10 0 -21 -8 -24 -18 -3 -9 -16 -22
-28 -28 -47 -21 -174 67 -242 170 -97 147 -117 316 -55 481 l20 54 131 3 c107
2 133 6 141 19 14 23 1 67 -23 74 -11 3 -20 14 -20 24 0 10 -11 30 -25 45
l-25 27 33 19 c40 25 113 50 175 59 54 8 59 7 43 -13z m259 -33 c74 -36 181
-128 209 -181 10 -20 9 -23 -13 -31 -13 -6 -32 -22 -43 -37 -10 -15 -37 -47
-61 -70 -36 -38 -41 -47 -32 -64 10 -18 21 -20 120 -20 l110 0 0 -72 c0 -136
-50 -257 -145 -354 -61 -62 -159 -122 -170 -104 -3 6 -15 10 -26 10 -12 0 -19
7 -19 20 0 11 -6 20 -14 20 -9 0 -16 17 -21 48 -4 26 -11 52 -15 57 -9 10 -17
146 -24 377 -2 65 -8 123 -13 130 -6 7 -13 82 -16 167 l-6 153 52 -6 c29 -4
86 -23 127 -43z m-500 -73 c11 -11 20 -29 20 -40 0 -13 10 -24 26 -30 19 -7
25 -16 22 -33 -3 -21 -7 -22 -121 -25 l-118 -3 12 23 c18 34 110 128 125 128
8 0 23 -9 34 -20z m310 -114 c0 -35 7 -80 15 -100 14 -32 14 -36 0 -36 -8 0
-15 5 -15 12 0 9 -3 9 -12 0 -18 -18 -26 -15 -31 11 -4 22 -4 22 -15 -3 -9
-21 -11 -14 -11 48 -1 60 2 72 15 72 13 0 14 3 4 15 -18 21 -5 45 25 45 24 0
25 -2 25 -64z m442 -79 c10 -20 22 -54 27 -76 l9 -41 -102 0 c-57 0 -106 3
-109 7 -4 3 12 26 36 50 23 23 54 57 70 74 33 37 46 34 69 -14z m-419 -89 c2
-7 2 -49 -1 -94 -3 -55 -1 -83 7 -88 6 -4 11 -25 11 -47 0 -32 -3 -39 -19 -39
-15 0 -21 8 -24 33 l-3 32 -8 -32 c-12 -46 -26 -41 -26 8 0 24 -4 38 -10 34
-5 -3 -10 -22 -10 -41 0 -27 -4 -34 -20 -34 -19 0 -20 7 -20 96 0 86 2 96 19
101 16 4 18 11 14 44 l-6 39 46 0 c27 0 47 -5 50 -12z m17 -353 c0 -44 5 -74
16 -90 16 -24 16 -25 -10 -25 -22 0 -26 4 -26 31 0 17 -4 28 -10 24 -5 -3 -10
-17 -10 -31 0 -13 -4 -24 -10 -24 -5 0 -10 18 -10 41 0 24 -4 38 -10 34 -5 -3
-10 -22 -10 -41 0 -19 -4 -34 -10 -34 -5 0 -10 23 -10 51 0 31 -4 48 -10 44
-5 -3 -10 -26 -10 -51 0 -40 -2 -44 -24 -44 -22 0 -23 3 -19 48 6 66 9 72 35
72 22 1 22 1 4 15 -36 27 -13 45 59 45 l65 0 0 -65z m28 -157 c3 -16 -7 -18
-97 -18 -78 0 -101 3 -101 13 0 25 13 28 104 25 77 -3 91 -6 94 -20z m32 -48
c0 -6 -54 -10 -141 -10 -91 0 -138 4 -134 10 4 6 62 10 141 10 83 0 134 -4
134 -10z m36 -39 c-18 -28 -191 -40 -285 -20 -97 21 -64 29 114 29 98 0 174
-4 171 -9z"/>
</g>
</svg>
