<?xml version="1.0" standalone="no"?>
<!DOCTYPE svg PUBLIC "-//W3C//DTD SVG 20010904//EN"
 "http://www.w3.org/TR/2001/REC-SVG-20010904/DTD/svg10.dtd">
<svg version="1.0" xmlns="http://www.w3.org/2000/svg"
 width="180.000000pt" height="180.000000pt" viewBox="0 0 180.000000 180.000000"
 preserveAspectRatio="xMidYMid meet">

<g transform="translate(0.000000,180.000000) scale(0.100000,-0.100000)"
fill="#3a4e6e" stroke="none">
<path d="M880 1555 c0 -28 -43 -108 -77 -141 -18 -18 -33 -37 -33 -42 0 -5
-19 -14 -42 -21 -120 -35 -265 -158 -320 -271 -90 -187 -73 -398 48 -566 131
-185 385 -268 596 -195 90 31 135 58 207 126 70 67 113 135 147 235 27 80 25
243 -5 324 -59 164 -181 287 -338 342 -29 10 -53 23 -53 29 0 5 -14 23 -32 40
-30 28 -78 116 -78 143 0 6 -4 12 -10 12 -5 0 -10 -7 -10 -15z m55 -122 c14
-17 25 -34 25 -37 0 -3 -31 -6 -70 -6 -71 0 -83 7 -54 31 8 7 25 31 36 53 21
40 21 40 30 16 5 -13 20 -39 33 -57z m55 -103 c0 -38 -2 -40 -30 -40 -23 0
-30 4 -30 20 0 11 -4 20 -10 20 -5 0 -10 -9 -10 -20 0 -13 -7 -20 -20 -20 -13
0 -20 7 -20 20 0 11 -4 20 -10 20 -5 0 -10 -9 -10 -20 0 -16 -7 -20 -30 -20
-28 0 -30 2 -30 40 l0 40 100 0 100 0 0 -40z m-220 -18 c0 -16 -13 -53 -30
-83 -22 -40 -30 -67 -30 -106 0 -29 -4 -53 -10 -53 -6 0 -10 -73 -10 -200 0
-127 4 -200 10 -200 6 0 10 -13 10 -30 0 -16 5 -30 10 -30 6 0 10 -52 10 -136
l0 -135 -22 6 c-96 29 -221 139 -275 241 -39 72 -63 167 -63 247 l0 57 100 0
c87 0 103 3 120 20 11 11 20 26 20 34 0 15 -26 46 -39 46 -4 0 -13 16 -20 35
-13 36 -53 65 -91 65 -11 0 -20 3 -20 8 0 11 74 99 113 134 33 30 180 108 204
108 8 0 13 -12 13 -28z m361 -19 c36 -18 89 -58 119 -88 l54 -54 -27 -27 c-15
-15 -27 -32 -27 -38 0 -6 -18 -26 -40 -45 -22 -19 -40 -41 -40 -50 0 -34 22
-41 126 -41 l103 0 7 -56 c25 -208 -94 -431 -280 -523 -35 -17 -66 -31 -70
-31 -10 0 -7 268 4 275 6 3 10 17 10 31 0 13 5 24 10 24 6 0 10 73 10 200 0
127 -4 200 -10 200 -5 0 -10 20 -10 45 0 31 -10 65 -30 105 -16 33 -30 73 -30
90 0 28 2 30 28 24 15 -4 57 -22 93 -41z m-113 -68 c27 -55 27 -55 -3 -55 -18
0 -25 5 -25 20 0 11 -4 20 -10 20 -5 0 -10 -9 -10 -20 0 -13 -7 -20 -20 -20
-13 0 -20 7 -20 20 0 11 -4 20 -10 20 -5 0 -10 -9 -10 -20 0 -13 -7 -20 -20
-20 -13 0 -20 7 -20 20 0 11 -4 20 -10 20 -5 0 -10 -9 -10 -20 0 -13 -7 -20
-20 -20 -13 0 -20 7 -20 20 0 11 -4 20 -10 20 -5 0 -10 -9 -10 -20 0 -15 -7
-20 -25 -20 -31 0 -31 4 -3 58 l23 42 105 0 105 -1 23 -44z m32 -115 l0 -40
-160 0 -160 0 0 40 0 40 160 0 160 0 0 -40z m303 -45 c14 -27 28 -60 32 -73
l7 -23 -99 3 c-84 3 -98 5 -101 21 -2 9 2 17 8 17 15 0 70 55 70 69 0 18 41
54 50 45 5 -5 20 -31 33 -59z m-838 -20 c14 -13 25 -36 25 -50 0 -18 5 -25 20
-25 25 0 36 -25 20 -45 -9 -11 -35 -15 -106 -15 -87 0 -94 2 -94 20 0 24 29
111 42 128 17 20 67 14 93 -13z m555 -175 l0 -180 -180 0 -180 0 0 180 0 180
180 0 180 0 0 -180z m-20 -220 c0 -19 -7 -20 -160 -20 -153 0 -160 1 -160 20
0 19 7 20 160 20 153 0 160 -1 160 -20z m-20 -180 l0 -140 -27 -7 c-36 -10
-190 -10 -225 0 l-28 7 0 140 0 140 140 0 140 0 0 -140z"/>
<path d="M807 1008 c-50 -30 -81 -94 -74 -154 17 -158 234 -193 299 -47 47
106 -17 212 -134 220 -42 3 -61 -1 -91 -19z m76 -10 c4 -10 7 -10 15 0 16 23
72 0 84 -33 1 -5 7 -9 11 -7 4 1 15 -14 23 -34 13 -30 13 -38 2 -45 -11 -8
-11 -10 0 -18 21 -13 -11 -83 -34 -74 -14 5 -16 3 -11 -11 9 -23 -61 -55 -74
-34 -8 11 -10 11 -18 0 -11 -18 -81 10 -81 33 0 9 -4 13 -10 10 -5 -3 -18 10
-27 30 -15 31 -15 37 -3 46 12 7 12 11 2 17 -24 16 2 76 33 77 6 0 10 7 10 15
0 14 39 40 62 40 6 0 14 -6 16 -12z"/>
<path d="M828 923 c11 -16 29 -36 39 -45 18 -17 22 -17 61 -1 23 9 42 20 42
25 0 11 -7 10 -47 -4 -31 -11 -35 -10 -66 20 -40 39 -55 42 -29 5z"/>
<path d="M790 470 c0 -60 4 -100 10 -100 6 0 10 40 10 100 0 60 -4 100 -10
100 -6 0 -10 -40 -10 -100z"/>
<path d="M850 470 c0 -60 4 -100 10 -100 6 0 10 40 10 100 0 60 -4 100 -10
100 -6 0 -10 -40 -10 -100z"/>
<path d="M910 470 c0 -60 4 -100 10 -100 6 0 10 40 10 100 0 60 -4 100 -10
100 -6 0 -10 -40 -10 -100z"/>
<path d="M970 470 c0 -60 4 -100 10 -100 6 0 10 40 10 100 0 60 -4 100 -10
100 -6 0 -10 -40 -10 -100z"/>
</g>
</svg>
