<?xml version="1.0" standalone="no"?>
<!DOCTYPE svg PUBLIC "-//W3C//DTD SVG 20010904//EN"
 "http://www.w3.org/TR/2001/REC-SVG-20010904/DTD/svg10.dtd">
<svg version="1.0" xmlns="http://www.w3.org/2000/svg"
 width="180.000000pt" height="180.000000pt" viewBox="0 0 180.000000 180.000000"
 preserveAspectRatio="xMidYMid meet">

<g transform="translate(0.000000,180.000000) scale(0.100000,-0.100000)"
fill="#3a4e6e" stroke="none">
<path d="M513 1478 c-13 -6 -31 -28 -40 -49 -10 -21 -26 -41 -35 -44 -27 -9
-34 -52 -13 -75 14 -15 31 -20 69 -20 l52 0 -52 -56 c-222 -238 -178 -624 93
-807 317 -214 735 -52 829 323 21 82 14 211 -15 294 -25 71 -25 66 -3 66 24 0
52 31 52 56 0 24 -27 64 -43 64 -7 1 -21 15 -32 33 -26 41 -64 55 -109 39 -31
-12 -37 -10 -84 22 -105 70 -258 100 -386 76 -59 -11 -69 -11 -85 4 -10 9 -24
16 -31 16 -7 0 -25 14 -39 31 -29 34 -89 47 -128 27z m110 -40 c18 -18 38 -33
45 -34 40 -7 54 -50 26 -78 -22 -23 -236 -23 -254 -1 -16 20 -5 45 20 45 14 0
20 7 20 24 0 13 12 35 26 50 37 36 77 35 117 -6z m436 -76 c74 -29 161 -83
161 -101 0 -8 -20 -33 -45 -57 -78 -72 -60 -94 77 -94 97 0 98 0 112 -28 32
-62 48 -155 43 -242 -3 -47 -11 -101 -18 -121 -9 -30 -15 -35 -35 -31 -19 3
-24 11 -24 33 0 22 -5 29 -20 29 -16 0 -20 7 -20 30 0 23 -4 30 -20 30 -16 0
-20 7 -20 30 0 23 -4 30 -20 30 -16 0 -20 7 -20 30 0 23 -4 30 -20 30 -16 0
-20 7 -20 30 0 23 -4 30 -20 30 -16 0 -20 7 -20 30 0 23 -4 30 -20 30 -16 0
-20 7 -20 30 0 23 -4 30 -20 30 -16 0 -20 7 -20 30 0 28 -2 30 -40 30 l-40 0
0 70 0 70 -80 0 -80 0 0 -70 0 -70 -40 0 c-38 0 -40 -2 -40 -30 0 -23 -4 -30
-20 -30 -16 0 -20 -7 -20 -30 0 -23 -4 -30 -20 -30 -16 0 -20 -7 -20 -30 0
-23 -4 -30 -20 -30 -16 0 -20 -7 -20 -30 0 -23 -4 -30 -20 -30 -16 0 -20 -7
-20 -30 0 -23 -4 -30 -20 -30 -16 0 -20 -7 -20 -30 0 -23 -4 -30 -20 -30 -16
0 -20 -7 -20 -30 0 -23 -4 -30 -20 -30 -15 0 -20 -7 -20 -29 0 -23 -5 -30 -25
-33 -23 -5 -25 -1 -40 63 -40 177 9 350 135 482 55 56 57 57 110 57 58 0 100
26 100 61 0 42 229 49 329 11z m-109 -82 c0 -6 -27 -10 -60 -10 -33 0 -60 4
-60 10 0 6 27 10 60 10 33 0 60 -4 60 -10z m397 -12 c13 -12 23 -29 23 -39 0
-10 9 -19 21 -21 30 -4 47 -33 33 -56 -10 -15 -28 -17 -139 -17 -94 0 -129 3
-132 12 -3 7 3 16 13 20 22 8 63 54 64 70 0 17 50 53 73 53 11 0 31 -10 44
-22z m-397 -58 c0 -22 -4 -40 -10 -40 -5 0 -10 14 -10 30 0 28 -2 30 -40 30
-38 0 -40 -2 -40 -30 0 -16 -4 -30 -10 -30 -5 0 -10 18 -10 40 l0 40 60 0 60
0 0 -40z m-40 -20 c0 -13 -7 -20 -20 -20 -13 0 -20 7 -20 20 0 13 7 20 20 20
13 0 20 -7 20 -20z m-50 -44 c0 -26 -16 -36 -61 -36 -42 0 -49 3 -49 20 0 18
7 20 55 20 30 0 55 -2 55 -4z m44 -12 c9 -23 8 -24 -13 -24 -14 0 -18 5 -14
20 6 24 19 26 27 4z m126 -4 c0 -17 -7 -20 -50 -20 -27 0 -50 2 -50 4 0 2 -3
11 -6 20 -5 13 3 16 50 16 49 0 56 -2 56 -20z m-180 -60 c0 -18 -7 -20 -70
-20 -63 0 -70 2 -70 20 0 18 7 20 70 20 63 0 70 -2 70 -20z m63 0 c4 -16 0
-20 -23 -20 -23 0 -27 4 -23 20 3 11 13 20 23 20 10 0 20 -9 23 -20z m157 0
c0 -19 -5 -21 -67 -18 -55 2 -68 6 -71 21 -3 15 5 17 67 17 65 0 71 -2 71 -20z
m-230 -60 c0 -18 -7 -20 -85 -20 -78 0 -85 2 -85 20 0 18 7 20 85 20 78 0 85
-2 85 -20z m83 0 c4 -17 0 -20 -29 -20 -27 0 -34 4 -34 20 0 15 7 20 29 20 20
0 30 -6 34 -20z m187 0 c0 -20 -5 -21 -82 -18 -70 3 -83 6 -86 21 -3 15 6 17
82 17 80 0 86 -1 86 -20z m-280 -60 c0 -19 -7 -20 -100 -20 -93 0 -100 1 -100
20 0 19 7 20 100 20 93 0 100 -1 100 -20z m100 0 c0 -17 -7 -20 -40 -20 -33 0
-40 3 -40 20 0 17 7 20 40 20 33 0 40 -3 40 -20z m220 0 c0 -19 -7 -20 -100
-20 -93 0 -100 1 -100 20 0 19 7 20 100 20 93 0 100 -1 100 -20z m-330 -60 c0
-19 -7 -20 -115 -20 -108 0 -115 1 -115 20 0 19 7 20 115 20 108 0 115 -1 115
-20z m120 0 c0 -17 -7 -20 -50 -20 -43 0 -50 3 -50 20 0 17 7 20 50 20 43 0
50 -3 50 -20z m250 0 c0 -19 -7 -20 -115 -20 -108 0 -115 1 -115 20 0 19 7 20
115 20 108 0 115 -1 115 -20z m-380 -60 c0 -19 -7 -20 -130 -20 -123 0 -130 1
-130 20 0 19 7 20 130 20 123 0 130 -1 130 -20z m140 0 c0 -18 -7 -20 -60 -20
-53 0 -60 2 -60 20 0 18 7 20 60 20 53 0 60 -2 60 -20z m280 0 c0 -19 -7 -20
-130 -20 -123 0 -130 1 -130 20 0 19 7 20 130 20 123 0 130 -1 130 -20z m-430
-60 c0 -19 -7 -20 -145 -20 -138 0 -145 1 -145 20 0 19 7 20 145 20 138 0 145
-1 145 -20z m160 0 c0 -18 -7 -20 -70 -20 -63 0 -70 2 -70 20 0 18 7 20 70 20
63 0 70 -2 70 -20z m310 0 c0 -19 -7 -20 -145 -20 -138 0 -145 1 -145 20 0 19
7 20 145 20 138 0 145 -1 145 -20z m-477 -60 c-5 -19 -14 -20 -164 -20 -152 0
-159 1 -159 20 0 19 7 20 164 20 159 0 164 -1 159 -20z m177 0 c0 -18 -7 -20
-80 -20 -60 0 -80 3 -80 13 0 23 11 27 87 27 66 0 73 -2 73 -20z m340 0 c0
-19 -7 -20 -159 -20 -150 0 -159 1 -164 20 -5 19 0 20 159 20 157 0 164 -1
164 -20z m-524 -56 c-3 -9 -6 -18 -6 -20 0 -2 -79 -4 -175 -4 -168 0 -175 1
-175 20 0 19 7 20 181 20 161 0 180 -2 175 -16z m192 -6 c3 -16 -6 -18 -87
-18 -50 0 -91 2 -91 4 0 2 3 12 6 21 10 24 167 18 172 -7z m372 2 c0 -19 -7
-20 -174 -20 -165 0 -174 1 -179 20 -5 19 0 20 174 20 172 0 179 -1 179 -20z
m-21 -62 c-23 -44 -135 -144 -195 -175 -71 -38 -167 -63 -241 -63 -159 0 -330
86 -421 214 l-33 46 451 0 451 0 -12 -22z"/>
</g>
</svg>
