<?xml version="1.0" standalone="no"?>
<!DOCTYPE svg PUBLIC "-//W3C//DTD SVG 20010904//EN"
 "http://www.w3.org/TR/2001/REC-SVG-20010904/DTD/svg10.dtd">
<svg version="1.0" xmlns="http://www.w3.org/2000/svg"
 width="180.000000pt" height="180.000000pt" viewBox="0 0 180.000000 180.000000"
 preserveAspectRatio="xMidYMid meet">

<g transform="translate(0.000000,180.000000) scale(0.100000,-0.100000)"
fill="#3a4e6e" stroke="none">
<path d="M908 1564 c-5 -4 -8 -18 -8 -31 0 -16 -6 -23 -19 -23 -11 0 -23 -4
-26 -10 -4 -6 5 -10 19 -10 38 0 33 -30 -9 -67 -19 -17 -35 -38 -35 -45 0 -9
-28 -22 -72 -35 -191 -56 -346 -231 -378 -426 -56 -329 196 -627 530 -627 348
0 604 322 525 659 -45 190 -206 355 -392 402 -40 9 -53 18 -57 35 -3 12 -20
32 -36 44 -38 27 -40 60 -5 60 14 0 25 5 25 10 0 6 -11 10 -24 10 -20 0 -25 6
-28 31 -2 17 -6 27 -10 23z m36 -155 c29 -23 33 -50 11 -73 -8 -8 -15 -22 -15
-32 0 -13 -3 -14 -14 -5 -10 8 -16 9 -21 1 -10 -16 -25 -12 -25 9 0 10 -7 24
-15 31 -23 19 -18 46 13 69 34 25 34 25 66 0z m-96 -81 c20 -20 14 -67 -33
-274 -29 -125 -45 -220 -45 -262 l0 -66 -30 29 c-16 16 -30 34 -30 41 0 6 -34
-21 -75 -60 -60 -57 -77 -80 -82 -109 -7 -46 11 -91 49 -121 26 -20 29 -27 26
-72 l-3 -49 -71 70 c-148 146 -200 351 -136 535 l19 55 136 3 137 3 6 26 c6
21 1 31 -29 57 -53 45 -92 106 -75 118 31 21 116 62 153 74 52 16 68 17 83 2z
m258 -19 c65 -24 162 -94 199 -143 15 -20 26 -38 24 -39 -2 -1 -17 -9 -34 -17
-16 -9 -36 -29 -44 -45 -8 -16 -25 -38 -38 -48 -27 -21 -30 -49 -7 -71 12 -12
38 -16 114 -16 112 0 110 3 110 -105 0 -139 -52 -259 -159 -365 l-76 -75 -3
57 c-3 54 -1 58 34 90 28 27 37 43 41 78 6 58 -16 95 -84 149 -29 23 -53 49
-53 59 0 11 -10 5 -31 -21 -17 -20 -35 -37 -40 -37 -5 0 -9 23 -9 51 0 28 -20
140 -45 249 -25 109 -45 212 -45 227 0 59 34 64 146 22z m-176 -44 c12 -14 54
-184 47 -191 -2 -2 -16 10 -32 26 l-29 30 -33 -32 c-18 -17 -35 -29 -38 -26
-3 3 4 45 15 93 26 111 42 134 70 100z m-328 -62 c10 -9 18 -22 18 -29 0 -15
41 -58 64 -67 9 -4 16 -13 16 -22 0 -13 -19 -15 -125 -15 l-126 0 30 43 c35
49 87 107 97 107 4 0 16 -7 26 -17z m779 -158 c44 -98 45 -96 -68 -93 -90 3
-98 5 -98 23 0 11 10 24 23 30 12 5 22 18 22 28 0 23 53 77 75 77 10 0 27 -23
46 -65z m-427 16 c31 -32 41 -53 56 -115 19 -84 16 -90 -38 -62 -26 13 -44 39
-55 76 -3 9 -10 1 -20 -22 -15 -37 -78 -80 -93 -65 -4 3 0 37 7 74 11 55 21
76 53 111 21 23 42 42 45 42 4 0 24 -18 45 -39z m-14 -176 c13 -14 38 -28 57
-31 33 -6 33 -7 33 -63 0 -48 -4 -61 -24 -81 -14 -12 -28 -36 -31 -52 -7 -28
-8 -29 -26 -12 -10 9 -19 24 -19 32 0 8 -17 -5 -39 -29 l-38 -44 -7 32 c-4 17
-18 43 -32 58 -20 22 -24 36 -24 88 l0 63 45 12 c25 6 50 21 57 32 16 26 20
25 48 -5z m225 -141 c22 -20 31 -31 19 -25 -14 7 -24 7 -32 -1 -7 -7 -16 -7
-28 0 -12 7 -25 7 -36 1 -36 -19 -40 3 -6 32 18 15 35 28 38 28 3 0 23 -16 45
-35z m-441 -6 c8 -13 29 -55 45 -94 30 -70 30 -73 14 -105 l-17 -33 -13 59
c-7 33 -27 84 -44 113 -29 51 -32 82 -10 82 6 0 17 -10 25 -22z m-25 -87 c18
-39 35 -86 38 -106 5 -32 3 -37 -12 -34 -11 3 -23 20 -30 46 -7 23 -25 63 -40
88 -14 26 -24 53 -21 61 12 30 34 11 65 -55z m111 17 c21 -34 27 -78 11 -78
-8 0 -17 19 -48 98 -11 26 18 10 37 -20z m425 15 c7 -19 -31 -36 -53 -24 -13
7 -22 7 -29 0 -8 -8 -17 -8 -30 0 -14 7 -23 7 -32 -2 -9 -9 -16 -9 -30 0 -11
7 -23 8 -32 2 -20 -12 -29 -11 -29 4 0 28 23 34 125 33 73 -1 106 -5 110 -13z
m-594 -57 c12 -21 27 -56 35 -78 12 -34 12 -38 -4 -37 -26 1 -93 139 -80 163
12 21 14 18 49 -48z m332 -27 c51 -40 76 -72 77 -96 0 -7 -4 -13 -10 -13 -5 0
-10 9 -10 20 0 13 -7 20 -20 20 -13 0 -20 7 -20 20 0 13 -7 20 -20 20 -13 0
-20 7 -20 20 0 13 -7 20 -20 20 -11 0 -20 7 -20 15 0 22 5 20 63 -26z m277 17
c0 -11 -3 -16 -6 -13 -4 3 -15 2 -25 -4 -13 -6 -25 -6 -37 0 -13 7 -22 7 -30
-1 -7 -7 -16 -7 -28 0 -12 7 -25 7 -37 0 -12 -6 -22 -6 -30 1 -8 6 -18 6 -27
1 -14 -9 -40 4 -40 21 0 11 31 14 153 14 99 0 107 -1 107 -19z m-644 -47 c14
-28 24 -53 21 -55 -9 -9 -47 44 -53 74 -9 46 2 39 32 -19z m305 21 c12 0 19
-7 19 -20 0 -13 7 -20 20 -20 13 0 20 -7 20 -20 0 -13 7 -20 20 -20 13 0 20
-7 20 -19 0 -10 9 -21 21 -24 17 -5 19 -9 9 -26 -12 -24 -40 -28 -40 -6 0 8
-7 15 -15 15 -8 0 -15 7 -15 16 0 9 -9 18 -20 21 -11 3 -20 14 -20 24 0 12 -7
19 -20 19 -13 0 -20 7 -20 20 0 13 -7 20 -20 20 -11 0 -20 4 -20 10 0 13 34
31 38 19 2 -5 12 -9 23 -9z m319 -31 c-13 -23 -33 -29 -102 -29 -46 0 -64 4
-74 18 -7 9 -14 19 -14 22 0 3 45 5 99 6 90 0 99 -2 91 -17z m-379 -9 c12 0
19 -7 19 -20 0 -13 7 -20 20 -20 13 0 20 -7 20 -20 0 -13 7 -20 20 -20 13 0
20 -7 20 -20 0 -11 6 -20 14 -20 7 0 16 -9 19 -20 4 -17 0 -20 -34 -20 -32 0
-39 3 -39 20 0 13 -7 20 -20 20 -13 0 -20 7 -20 20 0 13 -7 20 -20 20 -13 0
-20 7 -20 20 0 13 -7 20 -20 20 -20 0 -20 1 -4 33 10 17 19 26 21 20 3 -7 13
-13 24 -13z m319 -109 l0 -69 -52 -22 c-29 -12 -70 -25 -90 -28 -34 -4 -38 -2
-38 17 0 11 16 35 36 53 26 25 37 44 41 76 l6 42 48 0 49 0 0 -69z m-396 18
c3 -18 22 -47 41 -65 23 -21 35 -42 35 -59 0 -25 -2 -26 -32 -20 -52 11 -121
36 -145 51 -19 12 -23 23 -23 69 l0 55 59 0 c58 0 59 0 65 -31z m36 11 c0 -13
7 -20 20 -20 13 0 20 -7 20 -20 0 -13 7 -20 20 -20 11 0 20 -4 20 -10 0 -19
-46 -10 -68 13 -24 26 -40 77 -23 77 6 0 11 -9 11 -20z m160 -130 c0 -29 -1
-30 -50 -30 -49 0 -50 1 -50 30 0 29 1 30 50 30 49 0 50 -1 50 -30z"/>
<path d="M826 814 c-9 -8 -16 -31 -16 -50 0 -33 1 -34 40 -34 40 0 40 0 40 40
0 29 -5 42 -19 50 -25 13 -27 13 -45 -6z m42 -37 c3 -22 -1 -27 -17 -27 -15 0
-21 6 -21 23 0 46 33 49 38 4z"/>
<path d="M946 814 c-9 -8 -16 -31 -16 -50 0 -33 1 -34 40 -34 40 0 40 0 40 40
0 29 -5 42 -19 50 -25 13 -27 13 -45 -6z m42 -37 c3 -22 -1 -27 -17 -27 -15 0
-21 6 -21 23 0 46 33 49 38 4z"/>
<path d="M1097 453 c-11 -10 -8 -53 3 -53 6 0 10 14 10 30 0 31 -2 35 -13 23z"/>
<path d="M1137 453 c-11 -10 -8 -53 3 -53 6 0 10 14 10 30 0 31 -2 35 -13 23z"/>
<path d="M677 453 c-11 -10 -8 -53 3 -53 6 0 10 14 10 30 0 31 -2 35 -13 23z"/>
<path d="M717 453 c-11 -10 -8 -53 3 -53 6 0 10 14 10 30 0 31 -2 35 -13 23z"/>
<path d="M750 425 c0 -14 5 -25 10 -25 6 0 10 11 10 25 0 14 -4 25 -10 25 -5
0 -10 -11 -10 -25z"/>
</g>
</svg>
