<?xml version="1.0" standalone="no"?>
<!DOCTYPE svg PUBLIC "-//W3C//DTD SVG 20010904//EN"
 "http://www.w3.org/TR/2001/REC-SVG-20010904/DTD/svg10.dtd">
<svg version="1.0" xmlns="http://www.w3.org/2000/svg"
 width="179.000000pt" height="180.000000pt" viewBox="0 0 179.000000 180.000000"
 preserveAspectRatio="xMidYMid meet">

<g transform="translate(0.000000,180.000000) scale(0.100000,-0.100000)"
fill="#3a4e6e" stroke="none">
<path d="M900 1541 c0 -31 -5 -53 -15 -61 -8 -7 -15 -25 -15 -40 0 -31 -27
-60 -58 -60 -12 0 -49 -10 -84 -23 -333 -121 -459 -512 -261 -810 53 -80 120
-137 216 -183 337 -162 735 70 764 446 20 263 -151 498 -411 565 -61 15 -85
35 -86 71 0 12 -7 27 -15 34 -10 8 -15 30 -15 61 0 27 -4 49 -10 49 -5 0 -10
-22 -10 -49z m28 -94 c2 -12 -3 -17 -17 -17 -12 0 -21 6 -21 13 0 31 32 34 38
4z m22 -57 c35 -35 25 -45 -40 -45 -42 -1 -60 3 -60 12 0 20 38 53 60 53 11 0
29 -9 40 -20z m-120 -45 c0 -8 -11 -31 -25 -51 -13 -20 -28 -52 -31 -72 -4
-20 -15 -55 -25 -77 -16 -34 -19 -69 -19 -250 -1 -249 -3 -255 -89 -255 l-51
0 0 -45 c0 -38 -3 -45 -20 -45 -16 0 -20 -7 -20 -37 l-1 -38 -34 40 c-109 126
-151 320 -105 478 l11 37 112 0 c115 0 137 6 137 40 0 9 -18 32 -40 50 -22 18
-40 38 -40 44 0 5 -10 20 -21 33 -26 27 -20 37 52 84 98 62 209 97 209 64z
m257 -7 c95 -35 170 -90 234 -171 l40 -50 -40 -18 c-22 -9 -44 -27 -51 -38 -6
-12 -19 -21 -30 -21 -22 0 -50 -36 -50 -63 0 -10 11 -29 25 -42 22 -23 32 -25
120 -25 l95 0 0 -54 c0 -120 -50 -257 -124 -341 l-35 -40 -1 38 c0 30 -4 37
-20 37 -17 0 -20 7 -20 45 l0 45 -51 0 c-86 0 -88 6 -89 258 0 187 -2 217 -19
250 -10 20 -21 53 -25 73 -4 21 -18 53 -31 73 -47 70 -28 82 72 44z m-112 -30
c23 -18 55 -72 55 -93 0 -3 -18 4 -40 15 -49 25 -103 25 -157 0 -49 -22 -48
-22 -29 25 29 68 117 95 171 53z m23 -105 c65 -49 67 -54 70 -289 3 -210 3
-214 -17 -214 -20 0 -21 5 -21 200 0 220 -4 238 -57 271 -47 30 -105 21 -147
-20 l-31 -31 -3 -210 c-3 -200 -4 -210 -23 -210 -18 0 -19 9 -19 199 0 117 4
211 11 228 14 37 47 72 84 89 40 19 119 12 153 -13z m-444 -19 c9 -8 16 -20
16 -26 0 -6 18 -28 41 -49 23 -21 38 -43 34 -48 -4 -7 -48 -11 -111 -11 l-105
0 17 33 c26 49 74 117 84 117 5 0 16 -7 24 -16z m405 -28 c46 -24 51 -50 51
-261 l0 -195 -100 0 -100 0 0 198 c1 210 5 233 51 258 31 17 64 17 98 0z m432
-112 c11 -25 23 -61 26 -80 l6 -34 -91 0 c-69 0 -94 4 -106 16 -29 28 -13 72
28 78 8 1 28 16 44 34 43 46 69 42 93 -14z m-304 -386 c18 -17 23 -32 23 -75
l0 -53 71 0 70 0 -3 -41 c-3 -39 -7 -43 -68 -80 -179 -109 -389 -103 -562 14
-43 29 -48 36 -48 70 l0 37 70 0 70 0 0 49 c0 34 6 56 21 75 l20 26 157 0
c146 0 157 -1 179 -22z m-397 -73 c0 -34 -1 -35 -40 -35 -39 0 -40 1 -40 35 0
34 1 35 40 35 39 0 40 -1 40 -35z m520 0 c0 -34 -1 -35 -40 -35 -39 0 -40 1
-40 35 0 34 1 35 40 35 39 0 40 -1 40 -35z"/>
<path d="M882 1098 c-7 -7 -12 -29 -12 -50 0 -38 0 -38 40 -38 40 0 40 0 40
38 0 40 -14 62 -40 62 -9 0 -21 -5 -28 -12z m46 -41 c3 -22 -1 -27 -17 -27
-15 0 -21 6 -21 23 0 46 33 49 38 4z"/>
<path d="M870 930 l0 -40 40 0 40 0 0 40 0 40 -40 0 -40 0 0 -40z m60 0 c0
-13 -7 -20 -20 -20 -13 0 -20 7 -20 20 0 13 7 20 20 20 13 0 20 -7 20 -20z"/>
<path d="M870 810 l0 -40 40 0 40 0 0 40 0 40 -40 0 -40 0 0 -40z m60 0 c0
-13 -7 -20 -20 -20 -13 0 -20 7 -20 20 0 13 7 20 20 20 13 0 20 -7 20 -20z"/>
<path d="M790 590 l0 -40 40 0 40 0 0 40 0 40 -40 0 -40 0 0 -40z m60 0 c0
-13 -7 -20 -20 -20 -13 0 -20 7 -20 20 0 13 7 20 20 20 13 0 20 -7 20 -20z"/>
<path d="M950 590 l0 -40 40 0 40 0 0 40 0 40 -40 0 -40 0 0 -40z m60 0 c0
-13 -7 -20 -20 -20 -13 0 -20 7 -20 20 0 13 7 20 20 20 13 0 20 -7 20 -20z"/>
<path d="M630 470 l0 -40 40 0 40 0 0 40 0 40 -40 0 -40 0 0 -40z m60 0 c0
-13 -7 -20 -20 -20 -13 0 -20 7 -20 20 0 13 7 20 20 20 13 0 20 -7 20 -20z"/>
<path d="M790 470 l0 -40 40 0 40 0 0 40 0 40 -40 0 -40 0 0 -40z m60 0 c0
-13 -7 -20 -20 -20 -13 0 -20 7 -20 20 0 13 7 20 20 20 13 0 20 -7 20 -20z"/>
<path d="M950 470 l0 -40 40 0 40 0 0 40 0 40 -40 0 -40 0 0 -40z m60 0 c0
-13 -7 -20 -20 -20 -13 0 -20 7 -20 20 0 13 7 20 20 20 13 0 20 -7 20 -20z"/>
<path d="M1110 470 l0 -40 40 0 40 0 0 40 0 40 -40 0 -40 0 0 -40z m60 0 c0
-13 -7 -20 -20 -20 -13 0 -20 7 -20 20 0 13 7 20 20 20 13 0 20 -7 20 -20z"/>
</g>
</svg>
