<?xml version="1.0" standalone="no"?>
<!DOCTYPE svg PUBLIC "-//W3C//DTD SVG 20010904//EN"
 "http://www.w3.org/TR/2001/REC-SVG-20010904/DTD/svg10.dtd">
<svg version="1.0" xmlns="http://www.w3.org/2000/svg"
 width="180.000000pt" height="180.000000pt" viewBox="0 0 180.000000 180.000000"
 preserveAspectRatio="xMidYMid meet">

<g transform="translate(0.000000,180.000000) scale(0.100000,-0.100000)"
fill="#3a4e6e" stroke="none">
<path d="M900 1535 c0 -29 -5 -37 -25 -45 -27 -10 -34 -47 -14 -67 26 -26 5
-46 -61 -59 -183 -38 -340 -177 -404 -359 -23 -66 -32 -205 -16 -278 18 -90
82 -208 149 -275 103 -103 225 -152 376 -153 428 -1 687 470 456 830 -71 111
-218 209 -349 234 -54 10 -62 15 -62 34 0 12 5 25 10 28 20 13 11 55 -15 67
-19 9 -25 19 -25 45 0 18 -4 33 -10 33 -5 0 -10 -16 -10 -35z m50 -80 c0 -17
-59 -30 -72 -17 -6 6 -8 17 -5 24 7 18 77 11 77 -7z m-20 -132 c0 -46 5 -139
12 -206 7 -67 12 -140 13 -162 0 -40 0 -40 -40 -42 -23 -1 -46 1 -51 5 -8 5
-7 38 2 106 7 55 16 165 20 246 6 137 8 147 25 143 17 -5 19 -16 19 -90z m-64
-80 c-9 -146 -27 -294 -38 -315 -5 -10 -16 -18 -24 -18 -13 0 -15 -6 -9 -27
11 -41 11 -42 -16 -116 -18 -51 -30 -69 -46 -74 -17 -4 -23 -12 -23 -34 0 -16
-25 -75 -56 -134 l-57 -104 -29 20 c-63 45 -137 166 -163 266 -29 110 -7 322
34 324 9 0 57 1 106 1 99 0 121 7 137 43 9 19 7 30 -6 50 -9 14 -23 25 -31 25
-8 0 -15 4 -15 9 0 5 -12 23 -26 41 -25 29 -25 32 -10 49 35 38 184 98 250
100 l28 1 -6 -107z m195 87 c78 -23 148 -66 212 -128 52 -51 59 -72 23 -72
-25 0 -76 -50 -76 -75 0 -7 -11 -20 -25 -29 -33 -22 -33 -60 0 -82 19 -13 45
-15 121 -12 112 4 112 3 113 -92 1 -129 -60 -277 -153 -369 l-53 -53 -35 64
c-63 112 -78 147 -78 177 0 23 -5 30 -22 33 -33 5 -83 139 -68 182 8 22 7 32
-2 37 -7 4 -15 6 -19 3 -4 -2 -10 0 -13 4 -8 14 -36 295 -36 367 0 62 1 65 24
65 13 0 52 -9 87 -20z m-474 -142 c13 -12 23 -28 23 -35 0 -7 11 -18 25 -23
33 -13 42 -37 21 -58 -13 -13 -37 -17 -104 -18 -106 -2 -115 1 -101 29 21 41
90 127 101 127 7 0 22 -10 35 -22z m793 -140 c36 -76 37 -84 8 -92 -48 -12
-175 -7 -188 9 -16 19 -6 45 20 52 11 3 20 13 20 23 0 34 39 70 76 70 33 0 37
-4 64 -62z m-382 -169 c2 -12 -6 -18 -30 -22 -54 -8 -140 0 -149 15 -11 16 21
23 110 23 53 0 66 -3 69 -16z m-143 -49 c8 -13 -13 -109 -28 -127 -5 -7 -18
-13 -28 -13 -11 0 -19 6 -19 13 0 11 36 113 46 129 7 11 22 10 29 -2z m94 -65
c7 -30 10 -59 6 -64 -7 -12 -99 -10 -98 2 5 53 28 127 42 130 26 6 37 -9 50
-68z m69 3 c23 -63 18 -82 -17 -75 -19 3 -54 134 -37 140 22 8 31 -4 54 -65z
m69 -101 c3 -4 3 -13 0 -21 -5 -13 -34 -15 -182 -15 -159 1 -175 3 -175 18 0
10 2 20 4 22 7 7 346 2 353 -4z m8 -59 c8 -10 105 -192 105 -197 0 -8 -54 -41
-67 -41 -5 0 -19 31 -31 68 -34 105 -76 134 -196 133 -51 0 -80 -6 -115 -23
-43 -21 -48 -28 -71 -95 -14 -39 -28 -74 -32 -78 -8 -9 -68 23 -68 36 0 6 23
53 51 104 l50 94 62 3 c73 4 308 1 312 -4z m-92 -72 c44 -18 61 -41 85 -114
l21 -63 -34 -15 c-74 -30 -177 -35 -290 -13 -78 15 -80 18 -60 80 27 83 44
109 78 124 41 18 158 19 200 1z"/>
<path d="M898 1063 c6 -2 18 -2 25 0 6 3 1 5 -13 5 -14 0 -19 -2 -12 -5z"/>
<path d="M895 1010 c-8 -13 15 -24 27 -12 6 6 4 11 -6 15 -8 3 -18 2 -21 -3z"/>
<path d="M885 940 c6 -10 40 -8 51 3 4 4 -7 7 -25 7 -19 0 -30 -4 -26 -10z"/>
</g>
</svg>
