<?xml version="1.0" standalone="no"?>
<!DOCTYPE svg PUBLIC "-//W3C//DTD SVG 20010904//EN"
 "http://www.w3.org/TR/2001/REC-SVG-20010904/DTD/svg10.dtd">
<svg version="1.0" xmlns="http://www.w3.org/2000/svg"
 width="180.000000pt" height="180.000000pt" viewBox="0 0 180.000000 180.000000"
 preserveAspectRatio="xMidYMid meet">

<g transform="translate(0.000000,180.000000) scale(0.100000,-0.100000)"
fill="#3a4e6e" stroke="none">
<path d="M842 1555 c-19 -14 -21 -22 -16 -56 6 -34 3 -43 -20 -64 -14 -13 -26
-35 -26 -48 0 -21 -9 -28 -59 -46 -128 -47 -242 -147 -299 -265 -44 -91 -56
-141 -55 -246 0 -75 5 -110 25 -166 78 -222 274 -363 509 -365 299 -3 539 235
539 536 0 184 -103 372 -254 460 -42 25 -46 30 -46 66 0 26 -5 42 -15 45 -17
7 -20 45 -4 61 22 22 5 57 -36 78 -55 27 -210 34 -243 10z m236 -28 c30 -16
45 -47 22 -47 -5 0 -10 -11 -10 -25 0 -14 -4 -25 -10 -25 -5 0 -10 13 -10 30
0 51 -52 61 -71 13 -11 -30 -43 -28 -47 4 -8 53 -56 54 -74 2 -12 -35 -25 -28
-29 16 -6 53 4 58 105 53 59 -3 102 -10 124 -21z m-148 -53 c0 -8 -7 -14 -15
-14 -15 0 -21 21 -9 33 10 9 24 -2 24 -19z m120 -15 c0 -20 -24 -26 -35 -9 -8
13 14 42 26 34 5 -3 9 -14 9 -25z m17 -51 l55 -20 -7 -67 c-3 -36 -9 -76 -12
-87 l-5 -21 -51 20 c-41 16 -75 21 -155 21 l-104 1 7 75 c4 41 11 80 17 87 23
28 170 23 255 -9z m-339 -475 c-26 -219 -47 -406 -48 -415 0 -13 -8 -18 -30
-18 -26 0 -30 -4 -35 -37 -4 -21 -8 -42 -9 -48 -2 -5 -32 19 -68 55 -109 109
-173 283 -154 415 l7 45 47 1 c26 1 74 1 106 1 33 0 68 4 78 9 28 15 22 52
-12 78 -17 12 -41 39 -55 61 -13 21 -33 41 -45 45 -11 3 -20 12 -20 19 0 14
80 93 129 126 37 26 142 71 151 65 3 -2 -16 -183 -42 -402z m542 267 c45 -46
120 -160 120 -184 0 -3 -18 -6 -41 -6 -32 0 -47 -6 -70 -29 -16 -17 -38 -33
-49 -36 -11 -4 -28 -17 -36 -31 -14 -20 -14 -29 -4 -54 15 -37 35 -43 138 -42
64 0 85 -4 89 -15 10 -26 -16 -127 -54 -203 -53 -108 -168 -216 -261 -245 -22
-6 -23 -5 -16 43 6 50 6 50 -22 54 -25 3 -29 7 -26 33 8 98 93 798 97 805 9
15 77 -31 135 -90z m-221 10 c50 -22 52 -25 47 -54 -3 -17 -8 -56 -11 -87 l-7
-57 -47 21 c-38 18 -65 22 -157 22 l-111 0 5 45 c11 107 16 124 42 132 48 14
182 2 239 -22z m-526 -118 c9 -8 17 -20 17 -26 0 -13 54 -72 71 -78 7 -2 10
-11 6 -21 -5 -14 -22 -17 -106 -17 -55 0 -102 4 -106 9 -6 11 26 101 49 136
17 26 36 25 69 -3z m506 -78 l43 -18 -7 -85 c-3 -47 -8 -87 -9 -88 -2 -2 -29
6 -62 17 -57 20 -210 30 -233 15 -18 -10 -21 13 -12 86 7 51 15 77 28 87 25
19 193 10 252 -14z m370 -38 c6 -7 14 -43 18 -79 l6 -65 -83 0 c-96 0 -126 8
-135 38 -8 25 19 60 45 60 9 0 26 14 38 30 18 24 30 30 61 30 21 0 44 -6 50
-14z m-471 -141 c23 -3 61 -13 83 -22 l41 -16 -7 -66 c-3 -36 -9 -75 -11 -87
l-5 -20 -57 20 c-43 15 -81 20 -155 20 l-98 0 6 75 c4 42 11 80 16 86 10 10
93 23 124 19 11 -1 39 -5 63 -9z m24 -205 c20 -6 46 -18 57 -28 18 -15 20 -23
12 -74 -4 -32 -10 -60 -13 -64 -3 -3 -73 3 -154 13 l-149 19 3 64 c2 36 5 66
7 68 22 22 164 23 237 2z m-80 -174 c103 -12 190 -25 193 -28 9 -8 -6 -88 -16
-88 -5 0 -9 13 -9 28 0 30 -16 52 -36 52 -23 0 -44 -31 -44 -66 0 -55 -19 -39
-22 19 -2 43 -6 52 -23 55 -33 4 -47 -13 -52 -62 -5 -38 -9 -46 -26 -46 -17 0
-19 5 -15 45 6 53 -8 78 -43 73 -20 -2 -26 -11 -34 -53 -7 -32 -14 -45 -19
-37 -4 7 -5 25 -2 38 13 51 -16 84 -55 64 -10 -6 -19 -19 -19 -30 0 -10 -4
-22 -10 -25 -11 -7 -14 67 -3 78 9 10 26 9 235 -17z m-169 -55 c-2 -41 -9 -49
-29 -30 -12 12 -13 21 -4 43 13 36 35 28 33 -13z m101 1 c-1 -6 -2 -26 -2 -43
-2 -23 -6 -30 -19 -27 -20 4 -27 29 -19 64 5 17 12 24 24 22 9 -2 17 -9 16
-16z m114 -39 c-2 -35 -7 -48 -18 -48 -8 0 -16 11 -18 24 -5 35 7 71 24 71 12
0 14 -10 12 -47z m102 2 c0 -19 -2 -35 -4 -35 -2 0 -11 -3 -20 -6 -12 -5 -16
0 -16 19 0 36 10 57 26 57 9 0 14 -12 14 -35z"/>
<path d="M857 1348 c-4 -28 -4 -54 -2 -57 10 -10 18 11 23 59 6 67 -13 66 -21
-2z"/>
<path d="M928 1390 c-13 -31 -17 -79 -8 -85 5 -3 12 5 15 18 8 31 1 88 -7 67z"/>
<path d="M989 1385 c-13 -21 -19 -84 -10 -89 6 -4 13 9 16 28 7 37 3 77 -6 61z"/>
<path d="M1036 1329 c-6 -47 -3 -69 8 -58 11 10 18 109 9 109 -6 0 -13 -23
-17 -51z"/>
<path d="M835 1149 c-6 -45 -2 -70 9 -58 10 11 17 109 8 109 -6 0 -13 -23 -17
-51z"/>
<path d="M895 1159 c-6 -36 -2 -60 9 -48 10 11 17 89 8 89 -6 0 -13 -18 -17
-41z"/>
<path d="M955 1149 c-6 -36 -2 -60 9 -48 9 10 15 89 7 89 -5 0 -12 -18 -16
-41z"/>
<path d="M1016 1164 c-9 -25 -7 -99 3 -88 12 13 23 104 12 104 -5 0 -12 -7
-15 -16z"/>
<path d="M816 988 c-3 -13 -6 -41 -6 -62 0 -56 18 -33 21 26 3 52 -5 72 -15
36z"/>
<path d="M877 993 c-11 -10 -8 -83 3 -83 6 0 10 20 10 45 0 46 -2 50 -13 38z"/>
<path d="M938 984 c-5 -4 -8 -25 -8 -48 0 -28 3 -37 11 -29 6 6 9 27 7 48 -2
20 -6 33 -10 29z"/>
<path d="M998 980 c-11 -27 -16 -100 -8 -105 5 -3 12 10 15 28 8 40 2 100 -7
77z"/>
<path d="M787 758 c-5 -53 -3 -67 9 -55 12 11 17 107 7 107 -6 0 -13 -24 -16
-52z"/>
<path d="M848 759 c-4 -42 5 -61 16 -33 9 24 7 74 -3 74 -5 0 -11 -18 -13 -41z"/>
<path d="M917 790 c-12 -32 -16 -79 -7 -85 11 -7 24 55 17 82 -3 14 -5 15 -10
3z"/>
<path d="M966 739 c-6 -47 -3 -69 8 -58 11 10 18 109 9 109 -6 0 -13 -23 -17
-51z"/>
<path d="M765 559 c-6 -44 -2 -71 9 -58 9 10 16 109 7 109 -5 0 -12 -23 -16
-51z"/>
<path d="M825 559 c-6 -36 -2 -60 9 -48 10 11 17 89 8 89 -6 0 -13 -18 -17
-41z"/>
<path d="M885 559 c-6 -36 -2 -60 9 -48 10 11 17 89 8 89 -6 0 -13 -18 -17
-41z"/>
<path d="M946 568 c-9 -35 -7 -93 3 -82 12 13 23 104 12 104 -5 0 -11 -10 -15
-22z"/>
</g>
</svg>
