<?xml version="1.0" standalone="no"?>
<!DOCTYPE svg PUBLIC "-//W3C//DTD SVG 20010904//EN"
 "http://www.w3.org/TR/2001/REC-SVG-20010904/DTD/svg10.dtd">
<svg version="1.0" xmlns="http://www.w3.org/2000/svg"
 width="180.000000pt" height="180.000000pt" viewBox="0 0 180.000000 180.000000"
 preserveAspectRatio="xMidYMid meet">

<g transform="translate(0.000000,180.000000) scale(0.100000,-0.100000)"
fill="#3a4e6e" stroke="none">
<path d="M862 1543 c-17 -15 -22 -33 -25 -96 -2 -42 -6 -79 -8 -81 -2 -2 -56
-8 -119 -14 -92 -9 -128 -8 -180 3 -82 18 -80 18 -80 0 0 -20 -21 -19 -59 3
-25 14 -34 15 -51 5 -11 -7 -29 -13 -40 -13 -13 0 -20 -7 -20 -18 0 -29 33
-52 76 -52 21 -1 59 -11 84 -23 59 -29 72 -72 36 -120 -33 -44 -61 -102 -80
-167 -20 -65 -22 -206 -5 -276 22 -89 77 -184 148 -255 80 -79 164 -123 280
-146 352 -70 675 237 630 598 -10 82 -40 164 -85 230 -29 43 -33 56 -26 83 10
38 76 75 138 76 27 0 47 6 57 18 23 26 22 52 -3 52 -11 0 -29 6 -40 13 -17 10
-26 9 -51 -5 -38 -22 -59 -23 -59 -2 0 12 -6 15 -22 11 -90 -22 -150 -25 -252
-14 l-110 12 -1 79 c-1 69 -4 81 -24 97 -29 24 -82 24 -109 2z m98 -18 c6 -8
14 -33 16 -55 3 -33 -1 -46 -21 -66 -29 -29 -45 -30 -74 -6 -25 20 -32 102
-11 127 16 19 74 20 90 0z m-24 -156 c29 13 45 14 43 4 -4 -23 4 -32 29 -35
24 -3 27 -7 30 -46 2 -32 -3 -54 -23 -88 -24 -41 -45 -57 -45 -34 0 6 -4 10
-10 10 -5 0 -10 -18 -10 -40 0 -22 -4 -40 -10 -40 -5 0 -10 18 -10 40 0 22 -4
40 -10 40 -6 0 -10 -28 -10 -64 0 -36 -4 -68 -10 -71 -6 -4 -10 20 -10 64 0
41 -4 71 -10 71 -6 0 -10 -38 -10 -92 l0 -93 -49 -70 c-27 -38 -53 -70 -57
-70 -4 0 -7 48 -7 106 l0 106 -67 42 c-53 32 -77 41 -113 41 l-45 0 -22 68
c-12 37 -26 80 -31 96 l-9 29 53 -7 c28 -4 63 -15 77 -25 33 -23 70 -35 70
-22 0 5 -9 13 -20 16 -43 14 -15 23 93 31 88 7 112 12 113 24 1 8 2 18 3 23 0
4 12 0 26 -9 21 -14 31 -15 51 -5z m-546 -34 c7 -8 23 -15 36 -15 13 0 28 -9
34 -21 16 -29 9 -32 -33 -14 -20 8 -52 15 -70 15 -19 0 -40 7 -47 15 -10 13
-9 15 8 15 12 0 24 5 27 10 9 15 31 12 45 -5z m1095 5 c3 -5 15 -10 27 -10 17
0 18 -2 8 -15 -7 -8 -28 -15 -47 -15 -18 0 -50 -7 -70 -15 -42 -18 -49 -15
-33 14 6 12 21 21 34 21 13 0 29 7 36 15 14 17 36 20 45 5z m-291 -20 c4 -5
-1 -11 -13 -15 -12 -3 -21 -11 -21 -16 0 -13 37 -1 70 22 14 10 48 21 77 25
l51 6 -27 -93 -27 -94 -54 -5 c-63 -6 -170 -67 -171 -97 0 -10 0 -119 1 -243
0 -124 -2 -233 -5 -242 -5 -13 -35 1 -161 76 -150 88 -154 92 -154 124 0 27
30 76 151 250 142 206 150 219 149 262 -1 25 -1 48 -1 52 1 10 123 -2 135 -12z
m-514 -228 l57 -36 0 -163 c0 -97 5 -168 11 -176 13 -15 16 -356 3 -375 -13
-20 -112 31 -180 93 -112 103 -172 234 -172 380 0 118 21 199 76 284 l23 37
62 -4 c50 -4 75 -12 120 -40z m672 11 c84 -130 104 -299 54 -451 -38 -115
-143 -235 -254 -291 -34 -17 -64 -31 -68 -31 -3 0 -3 51 1 113 4 61 8 225 8
362 l2 250 57 37 c43 28 70 38 110 41 29 2 56 4 59 5 4 1 17 -15 31 -35z
m-534 -604 c0 -98 -3 -181 -7 -183 -30 -19 -35 30 -31 357 0 24 2 26 18 16 17
-11 19 -28 20 -190z m51 143 c14 -26 15 -329 1 -337 -26 -16 -32 17 -31 174 0
89 0 166 1 171 0 16 19 11 29 -8z m70 -185 c-1 -120 -4 -149 -15 -154 -8 -3
-18 -2 -22 2 -8 8 -12 233 -5 287 4 34 6 36 24 25 17 -11 19 -24 18 -160z m60
-11 c0 -97 -4 -127 -15 -137 -8 -6 -16 -10 -18 -8 -4 4 -9 240 -7 277 1 9 6
10 20 2 18 -9 20 -22 20 -134z m60 -12 c1 -78 -2 -104 -13 -114 -9 -6 -19 -9
-23 -7 -5 3 -7 54 -6 114 2 59 3 114 3 121 0 9 4 10 19 0 17 -10 19 -25 20
-114z"/>
</g>
</svg>
