<?xml version="1.0" standalone="no"?>
<!DOCTYPE svg PUBLIC "-//W3C//DTD SVG 20010904//EN"
 "http://www.w3.org/TR/2001/REC-SVG-20010904/DTD/svg10.dtd">
<svg version="1.0" xmlns="http://www.w3.org/2000/svg"
 width="180.000000pt" height="180.000000pt" viewBox="0 0 180.000000 180.000000"
 preserveAspectRatio="xMidYMid meet">

<g transform="translate(0.000000,180.000000) scale(0.100000,-0.100000)"
fill="#3a4e6e" stroke="none">
<path d="M998 1505 c-15 -8 -30 -24 -33 -35 -4 -11 -22 -36 -41 -54 -28 -27
-46 -35 -92 -41 -76 -9 -154 -37 -224 -80 -53 -33 -61 -35 -146 -35 -67 0 -93
-4 -102 -15 -9 -11 -11 -74 -8 -257 4 -213 8 -251 26 -309 87 -268 368 -428
640 -364 185 44 341 192 393 372 30 106 23 253 -16 356 -6 14 -1 17 27 17 19
0 42 6 52 13 25 18 18 69 -11 82 -12 5 -24 22 -27 37 -6 32 -57 68 -96 68 -14
0 -35 -7 -47 -15 -21 -14 -25 -13 -75 25 -29 22 -57 40 -62 40 -6 0 0 9 12 20
13 12 22 33 22 49 0 28 -26 61 -48 61 -7 0 -12 6 -12 14 0 21 -58 66 -83 66
-12 -1 -34 -7 -49 -15z m81 -15 c10 -5 24 -23 31 -40 7 -16 18 -30 26 -30 22
0 44 -41 33 -62 -9 -16 -24 -18 -138 -18 -70 0 -130 3 -134 6 -7 8 3 34 14 34
11 0 59 49 59 61 0 5 11 21 25 34 25 26 54 31 84 15z m-196 -150 c15 -17 29
-20 115 -20 105 0 141 -12 218 -73 40 -33 42 -44 11 -56 -52 -20 -67 -81 -27
-113 17 -14 40 -18 95 -18 l73 0 16 -47 c8 -27 18 -67 22 -90 l7 -43 -182 0
-181 0 0 50 0 50 -48 0 -49 0 -17 79 c-16 78 -17 80 -48 83 -30 3 -34 8 -48
58 l-16 55 -119 3 -119 3 39 24 c54 33 160 68 225 74 9 0 23 -8 33 -19z m-62
-142 c6 -24 13 -46 16 -50 2 -5 -101 -8 -230 -8 l-234 0 -1 41 c-1 23 1 45 4
50 3 5 101 9 219 9 l214 0 12 -42z m574 17 c14 -13 25 -33 25 -45 0 -13 10
-24 26 -30 19 -7 25 -16 22 -33 -3 -21 -7 -22 -123 -25 -111 -3 -121 -1 -137
18 -22 27 -12 59 20 67 15 3 41 21 58 40 38 40 75 43 109 8z m-482 -140 c27
-120 23 -115 72 -115 l45 0 0 -40 0 -40 -330 0 -330 0 0 113 c0 63 3 117 7
120 4 4 124 6 267 5 l260 -3 9 -40z m497 -268 c0 -29 -7 -77 -15 -105 l-16
-52 -485 0 -484 0 -10 26 c-15 38 -32 162 -25 174 4 7 181 10 521 10 l514 0 0
-53z m-66 -227 c-15 -27 -46 -70 -70 -95 l-44 -45 -335 0 c-333 0 -335 0 -361
23 -24 21 -114 148 -114 161 0 3 214 6 476 6 l475 0 -27 -50z m-169 -176 c-58
-46 -185 -84 -280 -84 -95 0 -222 38 -280 84 -18 14 5 15 280 15 275 0 298 -1
280 -15z"/>
<path d="M450 1053 c-16 -21 -20 -38 -18 -77 l3 -51 58 -3 57 -3 0 64 c0 49
-4 68 -18 80 -27 25 -58 21 -82 -10z m68 -5 c7 -7 12 -34 12 -60 l0 -48 -40 0
-40 0 0 42 c0 60 37 97 68 66z"/>
<path d="M610 1053 c-16 -21 -20 -38 -18 -77 l3 -51 58 -3 57 -3 0 64 c0 49
-4 68 -18 80 -27 25 -58 21 -82 -10z m68 -5 c7 -7 12 -34 12 -60 l0 -48 -40 0
-40 0 0 42 c0 60 37 97 68 66z"/>
<path d="M770 1053 c-16 -21 -20 -38 -18 -77 l3 -51 58 -3 57 -3 0 64 c0 49
-4 68 -18 80 -27 25 -58 21 -82 -10z m68 -5 c7 -7 12 -34 12 -60 l0 -48 -40 0
-40 0 0 42 c0 60 37 97 68 66z"/>
<path d="M450 813 c-16 -21 -20 -38 -18 -77 l3 -51 58 -3 57 -3 0 64 c0 49 -4
68 -18 80 -27 25 -58 21 -82 -10z m68 -5 c7 -7 12 -34 12 -60 l0 -48 -40 0
-40 0 0 42 c0 60 37 97 68 66z"/>
<path d="M610 813 c-16 -21 -20 -38 -18 -77 l3 -51 58 -3 57 -3 0 64 c0 49 -4
68 -18 80 -27 25 -58 21 -82 -10z m68 -5 c7 -7 12 -34 12 -60 l0 -48 -40 0
-40 0 0 42 c0 60 37 97 68 66z"/>
<path d="M770 813 c-16 -21 -20 -38 -18 -77 l3 -51 58 -3 57 -3 0 64 c0 49 -4
68 -18 80 -27 25 -58 21 -82 -10z m68 -5 c7 -7 12 -34 12 -60 l0 -48 -40 0
-40 0 0 42 c0 60 37 97 68 66z"/>
<path d="M930 813 c-16 -21 -20 -38 -18 -77 l3 -51 58 -3 57 -3 0 64 c0 49 -4
68 -18 80 -27 25 -58 21 -82 -10z m68 -5 c7 -7 12 -34 12 -60 l0 -48 -40 0
-40 0 0 42 c0 60 37 97 68 66z"/>
<path d="M1090 813 c-16 -21 -20 -38 -18 -77 l3 -51 58 -3 57 -3 0 64 c0 49
-4 68 -18 80 -27 25 -58 21 -82 -10z m68 -5 c7 -7 12 -34 12 -60 l0 -48 -40 0
-40 0 0 42 c0 60 37 97 68 66z"/>
<path d="M1250 813 c-16 -21 -20 -38 -18 -77 l3 -51 58 -3 57 -3 0 64 c0 49
-4 68 -18 80 -27 25 -58 21 -82 -10z m68 -5 c7 -7 12 -34 12 -60 l0 -48 -40 0
-40 0 0 42 c0 60 37 97 68 66z"/>
<path d="M610 593 c-16 -21 -20 -38 -18 -77 l3 -51 58 -3 57 -3 0 64 c0 49 -4
68 -18 80 -27 25 -58 21 -82 -10z m68 -5 c7 -7 12 -34 12 -60 l0 -48 -40 0
-40 0 0 44 c0 62 36 96 68 64z"/>
<path d="M770 593 c-16 -21 -20 -38 -18 -77 l3 -51 58 -3 57 -3 0 64 c0 49 -4
68 -18 80 -27 25 -58 21 -82 -10z m68 -5 c7 -7 12 -34 12 -60 l0 -48 -40 0
-40 0 0 44 c0 62 36 96 68 64z"/>
<path d="M930 593 c-16 -21 -20 -38 -18 -77 l3 -51 58 -3 57 -3 0 64 c0 49 -4
68 -18 80 -27 25 -58 21 -82 -10z m68 -5 c7 -7 12 -34 12 -60 l0 -48 -40 0
-40 0 0 44 c0 62 36 96 68 64z"/>
<path d="M1090 593 c-16 -21 -20 -38 -18 -77 l3 -51 58 -3 57 -3 0 64 c0 49
-4 68 -18 80 -27 25 -58 21 -82 -10z m68 -5 c7 -7 12 -34 12 -60 l0 -48 -40 0
-40 0 0 44 c0 62 36 96 68 64z"/>
</g>
</svg>
