<?xml version="1.0" standalone="no"?>
<!DOCTYPE svg PUBLIC "-//W3C//DTD SVG 20010904//EN"
 "http://www.w3.org/TR/2001/REC-SVG-20010904/DTD/svg10.dtd">
<svg version="1.0" xmlns="http://www.w3.org/2000/svg"
 width="180.000000pt" height="179.000000pt" viewBox="0 0 180.000000 179.000000"
 preserveAspectRatio="xMidYMid meet">

<g transform="translate(0.000000,179.000000) scale(0.100000,-0.100000)"
fill="#3a4e6e" stroke="none">
<path d="M830 1523 c-28 -32 -68 -84 -88 -116 -29 -48 -47 -64 -96 -89 -83
-42 -193 -154 -235 -239 -48 -99 -68 -212 -53 -312 38 -257 245 -449 502 -464
161 -9 297 42 411 156 214 213 213 548 0 760 -40 40 -90 78 -127 96 -50 25
-67 40 -94 83 -32 54 -145 182 -160 182 -5 0 -32 -26 -60 -57z m105 -10 c43
-44 103 -129 135 -193 30 -58 61 -150 51 -150 -8 0 -10 4 -65 121 -34 74 -103
175 -144 212 -20 18 -21 18 -59 -24 -57 -62 -100 -131 -144 -226 -40 -87 -62
-107 -39 -36 20 60 75 165 115 219 44 57 96 114 106 114 4 0 23 -17 44 -37z
m-55 -97 l0 -64 -49 -31 c-26 -17 -56 -40 -66 -51 -33 -37 -36 -21 -6 38 25
50 109 172 118 172 2 0 3 -29 3 -64z m90 -16 c20 -30 49 -79 64 -108 l27 -53
-52 41 c-29 23 -65 48 -81 56 -26 14 -28 18 -28 80 0 60 2 65 16 53 9 -7 33
-38 54 -69z m-4 -114 c127 -94 225 -230 294 -404 28 -70 0 -37 -50 60 -28 56
-66 122 -83 147 -43 63 -137 154 -191 186 l-46 27 -48 -31 c-99 -63 -197 -184
-266 -326 -48 -98 -75 -133 -52 -66 44 122 124 250 217 343 49 49 134 108 155
108 6 0 38 -20 70 -44z m-289 7 c-4 -10 -17 -55 -31 -100 -14 -45 -36 -99 -49
-120 -46 -72 -77 -142 -102 -229 l-25 -87 20 -54 c11 -30 20 -74 20 -98 0 -43
-1 -45 -30 -45 -24 0 -33 7 -48 37 -43 84 -57 146 -56 243 1 193 82 332 264
453 32 22 44 21 37 0z m476 -4 c60 -31 167 -144 199 -211 75 -154 77 -323 6
-466 -19 -40 -28 -47 -55 -50 -32 -3 -33 -2 -33 36 0 22 10 66 22 96 19 52 20
62 8 114 -16 76 -61 183 -110 262 -22 36 -40 74 -40 85 0 11 -11 50 -24 88
-13 37 -22 67 -20 67 3 0 24 -10 47 -21z m-273 -94 c0 -44 -4 -75 -10 -75 -6
0 -33 -11 -62 -25 -28 -14 -54 -25 -58 -25 -3 0 -11 14 -18 32 -11 31 -10 34
26 71 33 35 109 97 119 97 1 0 3 -34 3 -75z m79 41 c25 -19 61 -50 79 -68 31
-33 32 -36 20 -69 l-13 -35 -72 33 -73 33 0 70 c0 39 3 70 6 70 4 0 27 -15 53
-34z m-240 -153 c11 -25 10 -29 -16 -48 -15 -11 -46 -36 -67 -55 -34 -31 -38
-32 -26 -10 21 43 85 140 91 140 3 0 11 -12 18 -27z m324 -47 c71 -45 144
-118 195 -195 44 -67 50 -81 30 -81 -7 0 -26 23 -43 51 -70 120 -275 269 -348
255 -90 -18 -261 -156 -321 -259 -40 -67 -66 -64 -30 4 60 110 191 225 309
274 l58 23 49 -19 c27 -11 73 -34 101 -53z m108 -24 c17 -29 28 -56 25 -59 -3
-4 -6 -2 -6 3 0 5 -24 29 -54 52 -52 42 -54 45 -44 74 l11 31 19 -24 c10 -13
32 -48 49 -77z m-271 -107 l0 -145 -65 0 -66 0 3 113 3 112 60 32 c33 18 61
33 63 33 1 0 2 -65 2 -145z m91 114 l59 -32 0 -113 0 -114 -65 0 -65 0 0 145
c0 80 3 145 6 145 3 0 33 -14 65 -31z m-241 -159 l0 -100 -60 0 -60 0 0 49 c0
45 3 51 54 100 30 28 57 51 60 51 3 0 6 -45 6 -100z m388 49 c49 -49 52 -55
52 -100 l0 -49 -60 0 -60 0 0 100 c0 55 3 100 8 100 4 0 31 -23 60 -51z m-528
-119 c0 -23 -4 -30 -20 -30 -18 0 -18 1 -2 30 9 16 18 30 20 30 1 0 2 -13 2
-30z m640 -22 c0 -5 -9 -8 -20 -8 -16 0 -20 7 -20 33 l0 32 20 -25 c11 -14 20
-28 20 -32z m50 -37 c0 -4 -5 -22 -11 -40 l-11 -31 -94 0 -94 0 0 30 0 30
-180 0 -180 0 0 -30 0 -30 -91 0 -90 0 -15 35 c-7 19 -14 37 -14 40 0 3 176 5
390 5 215 0 390 -4 390 -9z m-230 -51 c0 -19 -7 -20 -160 -20 -153 0 -160 1
-160 20 0 19 7 20 160 20 153 0 160 -1 160 -20z m-460 -80 c0 -38 -2 -40 -30
-40 -28 0 -30 2 -30 40 0 38 2 40 30 40 28 0 30 -2 30 -40z m80 0 c0 -38 -2
-40 -30 -40 -28 0 -30 2 -30 40 0 38 2 40 30 40 28 0 30 -2 30 -40z m80 0 c0
-38 -2 -40 -30 -40 -28 0 -30 2 -30 40 0 38 2 40 30 40 28 0 30 -2 30 -40z
m80 0 c0 -38 -2 -40 -30 -40 -28 0 -30 2 -30 40 0 38 2 40 30 40 28 0 30 -2
30 -40z m100 0 l0 -40 -40 0 -40 0 0 40 0 40 40 0 40 0 0 -40z m80 0 c0 -38
-2 -40 -30 -40 -28 0 -30 2 -30 40 0 38 2 40 30 40 28 0 30 -2 30 -40z m80 0
c0 -38 -2 -40 -30 -40 -28 0 -30 2 -30 40 0 38 2 40 30 40 28 0 30 -2 30 -40z
m80 0 c0 -38 -2 -40 -30 -40 -28 0 -30 2 -30 40 0 38 2 40 30 40 28 0 30 -2
30 -40z m80 0 c0 -38 -2 -40 -30 -40 -28 0 -30 2 -30 40 0 38 2 40 30 40 28 0
30 -2 30 -40z m60 -69 c0 -5 -29 -36 -65 -69 -192 -181 -471 -190 -682 -23
-28 22 -60 53 -73 70 l-21 31 420 0 c238 0 421 -4 421 -9z"/>
<path d="M610 473 c0 -5 18 -16 41 -23 33 -11 47 -11 75 -1 29 10 41 10 66 0
24 -10 37 -10 64 0 27 10 41 10 69 0 28 -11 42 -11 71 0 28 10 41 10 65 0 24
-9 38 -9 70 1 21 7 39 18 39 23 0 5 -10 6 -22 2 -13 -4 -38 -7 -55 -6 -31 1
-57 1 -133 1 -16 0 -46 0 -65 0 -19 0 -51 0 -70 0 -19 0 -51 0 -70 0 -19 0
-47 0 -62 -1 -16 0 -40 2 -55 6 -16 4 -28 3 -28 -2z"/>
</g>
</svg>
