<?xml version="1.0" standalone="no"?>
<!DOCTYPE svg PUBLIC "-//W3C//DTD SVG 20010904//EN"
 "http://www.w3.org/TR/2001/REC-SVG-20010904/DTD/svg10.dtd">
<svg version="1.0" xmlns="http://www.w3.org/2000/svg"
 width="180.000000pt" height="180.000000pt" viewBox="0 0 180.000000 180.000000"
 preserveAspectRatio="xMidYMid meet">

<g transform="translate(0.000000,180.000000) scale(0.100000,-0.100000)"
fill="#3a4e6e" stroke="none">
<path d="M880 1530 c0 -43 -3 -50 -19 -50 -17 0 -20 -8 -23 -52 l-3 -51 -61
-13 c-284 -57 -473 -353 -410 -638 53 -237 246 -404 487 -423 324 -25 597 244
576 567 -9 131 -44 219 -126 318 -78 94 -189 156 -333 187 -26 5 -28 9 -28 55
0 43 -3 50 -20 50 -17 0 -20 7 -20 50 0 28 -4 50 -10 50 -5 0 -10 -22 -10 -50z
m40 -127 c0 -32 3 -68 6 -80 6 -21 3 -23 -32 -23 l-39 0 3 80 4 80 29 0 c29 0
29 -1 29 -57z m-80 -71 c0 -19 -7 -30 -22 -37 -31 -14 -35 -49 -7 -68 l21 -16
-16 -120 c-9 -66 -19 -127 -22 -136 -4 -9 -18 -15 -35 -15 -33 0 -69 -31 -69
-60 0 -24 34 -60 56 -60 20 0 15 -23 -33 -145 -41 -103 -121 -245 -139 -245
-20 0 -107 103 -141 167 -109 203 -72 444 93 609 77 77 206 142 307 153 4 1 7
-11 7 -27z m280 -27 c28 -14 50 -27 50 -30 0 -14 -66 -98 -90 -115 -17 -12
-30 -30 -30 -39 0 -37 23 -42 164 -39 l136 3 19 -46 c80 -186 40 -402 -103
-556 -52 -56 -55 -57 -73 -41 -39 35 -145 258 -167 351 -5 22 -3 27 13 27 22
0 51 35 51 62 0 27 -37 58 -69 58 -28 0 -30 3 -40 53 -6 28 -15 90 -21 136
-11 79 -10 84 9 98 28 19 26 49 -4 69 -23 15 -33 43 -19 56 9 10 122 -21 174
-47z m-152 -47 c3 -16 -6 -18 -72 -18 -41 0 -78 5 -81 10 -14 22 9 31 78 28
59 -2 72 -6 75 -20z m288 -50 c43 -45 74 -87 74 -101 0 -14 -253 -4 -258 10
-2 7 4 16 13 19 23 9 65 52 65 66 0 18 31 48 49 48 9 0 35 -19 57 -42z m-326
5 c1 -22 29 -222 35 -245 l7 -28 -82 0 c-75 0 -81 1 -75 19 6 18 34 223 35
249 0 13 80 18 80 5z m134 -315 c8 -13 8 -23 0 -35 -10 -16 -31 -18 -169 -21
-162 -3 -185 2 -185 37 0 38 19 42 184 39 139 -3 160 -5 170 -20z m-45 -148
c27 -89 78 -201 125 -274 20 -31 36 -60 36 -65 0 -6 -43 -31 -54 -31 -2 0 -25
34 -51 75 -53 86 -82 102 -118 66 -19 -18 -23 -35 -25 -111 l-4 -90 -38 0 -38
0 -4 90 c-2 76 -6 93 -25 111 -36 36 -65 20 -118 -66 -26 -41 -51 -75 -55 -75
-4 0 -18 8 -30 18 l-22 18 37 59 c48 74 96 179 126 273 l23 72 107 0 107 0 21
-70z m-205 -252 c11 -16 16 -46 16 -100 l0 -78 -27 6 c-47 10 -123 35 -123 40
0 8 21 45 56 102 37 57 55 64 78 30z m224 -20 c28 -42 62 -102 62 -112 0 -5
-77 -30 -122 -40 l-28 -6 0 78 c0 80 16 122 45 122 8 0 27 -19 43 -42z"/>
<path d="M860 1170 c0 -5 14 -10 30 -10 17 0 30 5 30 10 0 6 -13 10 -30 10
-16 0 -30 -4 -30 -10z"/>
<path d="M860 1110 c0 -5 14 -10 30 -10 17 0 30 5 30 10 0 6 -13 10 -30 10
-16 0 -30 -4 -30 -10z"/>
<path d="M860 1050 c0 -5 14 -10 30 -10 17 0 30 5 30 10 0 6 -13 10 -30 10
-16 0 -30 -4 -30 -10z"/>
<path d="M850 990 c0 -5 18 -10 40 -10 22 0 40 5 40 10 0 6 -18 10 -40 10 -22
0 -40 -4 -40 -10z"/>
<path d="M850 784 c0 -9 -9 -18 -20 -21 -20 -5 -28 -23 -10 -23 6 0 10 -9 10
-20 0 -13 -7 -20 -20 -20 -11 0 -20 -4 -20 -10 0 -5 6 -10 14 -10 9 0 12 -7 9
-20 -3 -11 -14 -20 -24 -20 -11 0 -19 -4 -19 -10 0 -5 7 -10 16 -10 11 0 14
-6 9 -20 -3 -11 -2 -20 4 -20 5 0 13 9 16 20 6 18 15 20 77 20 61 0 70 -2 75
-20 3 -11 10 -20 15 -20 6 0 8 9 5 20 -3 13 0 20 9 20 8 0 14 5 14 10 0 6 -9
10 -20 10 -13 0 -20 7 -20 20 0 11 5 20 10 20 18 0 10 18 -10 23 -20 5 -29 37
-10 37 6 0 10 5 10 10 0 6 -7 10 -16 10 -9 0 -18 9 -21 20 -3 11 -10 20 -15
20 -6 0 -8 -9 -5 -20 4 -16 0 -20 -23 -20 -23 0 -27 4 -23 20 3 11 0 20 -6 20
-6 0 -11 -7 -11 -16z m83 -64 c5 -18 0 -20 -43 -20 -43 0 -48 2 -43 20 4 16
14 20 43 20 29 0 39 -4 43 -20z m15 -62 c3 -16 -5 -18 -57 -18 -44 0 -61 4
-61 13 0 23 13 28 65 25 38 -2 51 -7 53 -20z"/>
</g>
</svg>
