<?xml version="1.0" standalone="no"?>
<!DOCTYPE svg PUBLIC "-//W3C//DTD SVG 20010904//EN"
 "http://www.w3.org/TR/2001/REC-SVG-20010904/DTD/svg10.dtd">
<svg version="1.0" xmlns="http://www.w3.org/2000/svg"
 width="180.000000pt" height="180.000000pt" viewBox="0 0 180.000000 180.000000"
 preserveAspectRatio="xMidYMid meet">

<g transform="translate(0.000000,180.000000) scale(0.100000,-0.100000)"
fill="#3a4e6e" stroke="none">
<path d="M880 1520 c0 -42 -3 -50 -18 -50 -10 0 -27 -6 -38 -14 -16 -13 -17
-18 -6 -35 22 -37 14 -47 -45 -61 -207 -46 -378 -225 -414 -434 -39 -229 83
-471 292 -573 84 -42 146 -55 249 -55 290 1 530 244 530 537 0 253 -196 490
-437 530 -45 7 -52 20 -31 54 14 24 -2 48 -35 53 -19 3 -22 10 -25 51 -4 63
-22 61 -22 -3z m57 -75 c12 -4 14 -8 5 -17 -7 -7 -12 -35 -12 -63 l0 -52 -40
-1 -40 -2 0 53 c0 29 -5 58 -12 65 -9 9 -8 12 3 16 39 13 56 13 96 1z m-107
-119 c0 -17 -9 -27 -30 -36 -73 -30 -148 -150 -165 -263 -5 -32 -13 -48 -25
-52 -11 -3 -33 -22 -50 -42 -26 -30 -31 -41 -25 -67 21 -100 20 -105 -24 -145
-42 -39 -50 -65 -30 -102 5 -11 9 -41 7 -67 l-3 -47 -32 51 c-59 91 -76 155
-76 279 0 88 4 122 21 169 31 83 74 146 144 211 65 60 113 89 198 116 76 25
90 24 90 -5z m245 -4 c68 -26 168 -98 213 -153 102 -126 143 -287 111 -441
-12 -58 -72 -190 -96 -210 -13 -11 -14 -5 -10 42 3 30 9 70 12 88 7 29 3 37
-34 72 -44 42 -50 68 -29 127 10 28 10 39 -5 66 -10 18 -33 42 -51 54 -29 18
-35 30 -41 72 -10 77 -55 160 -115 214 -29 26 -58 47 -66 47 -8 0 -14 10 -14
26 0 25 2 25 43 19 23 -4 60 -14 82 -23z m-94 -55 c57 -30 112 -108 134 -192
10 -36 15 -68 12 -71 -3 -4 -21 -1 -39 6 -56 21 -282 25 -362 6 -38 -9 -71
-15 -73 -13 -7 8 17 97 38 142 25 53 81 112 123 131 49 21 117 17 167 -9z m23
-262 c77 -8 157 -39 197 -76 27 -25 30 -34 25 -62 -4 -17 -10 -49 -13 -69 -5
-35 -6 -36 -31 -27 -108 41 -347 53 -489 23 -43 -9 -85 -20 -95 -25 -26 -14
-28 -12 -28 30 0 22 -4 43 -10 46 -19 12 -10 54 18 82 35 34 136 71 222 81 67
8 104 7 204 -3z m106 -234 c77 -21 124 -42 153 -69 27 -26 36 -65 17 -77 -5
-3 -10 -40 -10 -80 l0 -74 -53 -40 c-29 -22 -82 -54 -118 -70 -173 -81 -407
-47 -545 81 -43 40 -44 42 -44 104 0 35 -5 74 -11 88 -31 68 102 138 293 154
98 8 254 0 318 -17z"/>
<path d="M850 1105 c0 -14 5 -25 10 -25 6 0 10 11 10 25 0 14 -4 25 -10 25 -5
0 -10 -11 -10 -25z"/>
<path d="M910 1105 c0 -14 5 -25 10 -25 6 0 10 11 10 25 0 14 -4 25 -10 25 -5
0 -10 -11 -10 -25z"/>
<path d="M790 1095 c0 -8 5 -15 10 -15 6 0 10 7 10 15 0 8 -4 15 -10 15 -5 0
-10 -7 -10 -15z"/>
<path d="M970 1095 c0 -8 5 -15 10 -15 6 0 10 7 10 15 0 8 -4 15 -10 15 -5 0
-10 -7 -10 -15z"/>
<path d="M850 895 c0 -19 5 -35 10 -35 6 0 10 16 10 35 0 19 -4 35 -10 35 -5
0 -10 -16 -10 -35z"/>
<path d="M910 895 c0 -19 5 -35 10 -35 6 0 10 16 10 35 0 19 -4 35 -10 35 -5
0 -10 -16 -10 -35z"/>
<path d="M790 885 c0 -14 5 -25 10 -25 6 0 10 11 10 25 0 14 -4 25 -10 25 -5
0 -10 -11 -10 -25z"/>
<path d="M970 885 c0 -14 5 -25 10 -25 6 0 10 11 10 25 0 14 -4 25 -10 25 -5
0 -10 -11 -10 -25z"/>
<path d="M730 875 c0 -8 5 -15 10 -15 6 0 10 7 10 15 0 8 -4 15 -10 15 -5 0
-10 -7 -10 -15z"/>
<path d="M1030 875 c0 -8 5 -15 10 -15 6 0 10 7 10 15 0 8 -4 15 -10 15 -5 0
-10 -7 -10 -15z"/>
<path d="M850 590 c0 -87 4 -140 10 -140 6 0 10 53 10 140 0 87 -4 140 -10
140 -6 0 -10 -53 -10 -140z"/>
<path d="M910 590 c0 -87 4 -140 10 -140 6 0 10 53 10 140 0 87 -4 140 -10
140 -6 0 -10 -53 -10 -140z"/>
<path d="M790 580 c0 -80 4 -130 10 -130 6 0 10 50 10 130 0 80 -4 130 -10
130 -6 0 -10 -50 -10 -130z"/>
<path d="M970 580 c0 -80 4 -130 10 -130 6 0 10 50 10 130 0 80 -4 130 -10
130 -6 0 -10 -50 -10 -130z"/>
<path d="M730 570 c0 -73 4 -120 10 -120 6 0 10 47 10 120 0 73 -4 120 -10
120 -6 0 -10 -47 -10 -120z"/>
<path d="M1030 570 c0 -73 4 -120 10 -120 6 0 10 47 10 120 0 73 -4 120 -10
120 -6 0 -10 -47 -10 -120z"/>
<path d="M670 560 c0 -67 4 -110 10 -110 6 0 10 43 10 110 0 67 -4 110 -10
110 -6 0 -10 -43 -10 -110z"/>
<path d="M1090 560 c0 -67 4 -110 10 -110 6 0 10 43 10 110 0 67 -4 110 -10
110 -6 0 -10 -43 -10 -110z"/>
<path d="M610 550 c0 -60 4 -100 10 -100 6 0 10 40 10 100 0 60 -4 100 -10
100 -6 0 -10 -40 -10 -100z"/>
<path d="M1150 550 c0 -60 4 -100 10 -100 6 0 10 40 10 100 0 60 -4 100 -10
100 -6 0 -10 -40 -10 -100z"/>
</g>
</svg>
